<svg width="377" height="163" viewBox="0 0 377 163" fill="none" xmlns="http://www.w3.org/2000/svg">
<path d="M70.625 159V132.017H0.75V110.732L51.06 4.19999H76.7525L26.4425 110.732H70.625V68.8075H93.415V110.732H108.788V132.017H93.415V159H70.625ZM188.561 162.225C178.026 162.225 168.709 159.932 160.611 155.345C152.513 150.687 146.134 144.308 141.476 136.21C136.889 128.112 134.596 118.795 134.596 108.26V54.94C134.596 44.405 136.889 35.0883 141.476 26.99C146.134 18.8917 152.513 12.5492 160.611 7.96249C168.709 3.30416 178.026 0.974997 188.561 0.974997C199.096 0.974997 208.413 3.30416 216.511 7.96249C224.609 12.5492 230.952 18.8917 235.538 26.99C240.197 35.0883 242.526 44.405 242.526 54.94V108.26C242.526 118.795 240.197 128.112 235.538 136.21C230.952 144.308 224.609 150.687 216.511 155.345C208.413 159.932 199.096 162.225 188.561 162.225ZM188.561 140.725C194.294 140.725 199.49 139.363 204.148 136.64C208.878 133.845 212.641 130.118 215.436 125.46C218.231 120.73 219.628 115.462 219.628 109.657V53.3275C219.628 47.5942 218.231 42.3983 215.436 37.74C212.641 33.01 208.878 29.2833 204.148 26.56C199.49 23.765 194.294 22.3675 188.561 22.3675C182.828 22.3675 177.596 23.765 172.866 26.56C168.208 29.2833 164.481 33.01 161.686 37.74C158.891 42.3983 157.493 47.5942 157.493 53.3275V109.657C157.493 115.462 158.891 120.73 161.686 125.46C164.481 130.118 168.208 133.845 172.866 136.64C177.596 139.363 182.828 140.725 188.561 140.725ZM338.115 159V132.017H268.24V110.732L318.55 4.19999H344.243L293.933 110.732H338.115V68.8075H360.905V110.732H376.278V132.017H360.905V159H338.115Z" fill="black"/>
</svg>
