<svg width="1017" height="262" viewBox="0 0 1017 262" fill="none"
    xmlns="http://www.w3.org/2000/svg">
    <path d="M122.818 92.0297L92.0636 122.782C87.6466 127.198 87.6466 134.359 92.0636 138.776L122.818 169.528C127.235 173.944 134.396 173.944 138.813 169.528L169.568 138.776C173.985 134.359 173.985 127.198 169.568 122.782L138.813 92.0297C134.396 87.613 127.235 87.613 122.818 92.0297Z" fill="white"/>
    <path d="M130.809 250.699C122.913 250.727 115.091 249.187 107.796 246.168C100.501 243.149 93.8775 238.712 88.311 233.113L81.7729 226.575L109.658 198.692L116.196 205.23C120.061 209.094 125.303 211.264 130.768 211.264C136.233 211.264 141.474 209.094 145.34 205.23L205.212 145.362C209.067 141.496 211.231 136.259 211.231 130.8C211.231 125.34 209.067 120.103 205.212 116.237L175.317 86.3766L203.202 58.4937L233.146 88.4359C244.387 99.7022 250.7 114.967 250.7 130.881C250.7 146.796 244.387 162.06 233.146 173.327L173.257 233.195C167.691 238.774 161.073 243.194 153.787 246.199C146.5 249.204 138.69 250.733 130.809 250.699Z" fill="url(#paint0_linear_142_177)"/>
    <path d="M58.3666 203.187L28.4875 173.245C22.9117 167.672 18.4886 161.055 15.4709 153.772C12.4531 146.489 10.8999 138.683 10.8999 130.8C10.8999 122.916 12.4531 115.11 15.4709 107.827C18.4886 100.545 22.9117 93.9275 28.4875 88.3543L88.3601 28.4863C93.9337 22.9109 100.551 18.4881 107.835 15.4706C115.118 12.4531 122.925 10.9 130.809 10.9C138.692 10.9 146.499 12.4531 153.783 15.4706C161.066 18.4881 167.684 22.9109 173.257 28.4863L179.795 35.0239L151.91 62.9067L145.372 56.3691C141.507 52.5056 136.266 50.3353 130.8 50.3353C125.335 50.3353 120.094 52.5056 116.229 56.3691L56.3561 116.237C54.4435 118.149 52.9263 120.42 51.8911 122.918C50.856 125.417 50.3232 128.095 50.3232 130.8C50.3232 133.504 50.856 136.182 51.8911 138.681C52.9263 141.18 54.4435 143.45 56.3561 145.362L86.3006 175.304L58.3666 203.187Z" fill="url(#paint1_linear_142_177)"/>
    <path d="M315.789 184.42C314.772 183.319 313.938 182.062 313.317 180.696C312.762 179.455 313.237 178.087 314.759 176.559L328.563 162.905C329.01 162.414 329.578 162.049 330.209 161.849C330.841 161.647 331.515 161.617 332.161 161.76C333.508 162.215 334.741 162.96 335.775 163.94C337.835 166.009 340.133 168.13 342.669 170.305C345.249 172.469 348.005 174.412 350.91 176.113C353.934 177.864 357.153 179.251 360.499 180.251C364.041 181.314 367.722 181.85 371.419 181.842C375.123 181.933 378.814 181.395 382.339 180.251C385.3 179.269 388.059 177.76 390.485 175.795C392.644 174.075 394.402 171.903 395.636 169.43C396.782 167.083 397.38 164.502 397.38 161.887C397.464 158.816 396.402 155.824 394.4 153.501C392.313 151.157 389.836 149.198 387.078 147.708C384.095 146.087 380.957 144.769 377.711 143.778C374.34 142.716 371.281 141.857 368.535 141.2C351.914 136.235 339.235 130.129 330.497 122.884C326.275 119.48 322.896 115.139 320.626 110.201C318.358 105.265 317.262 99.8656 317.422 94.4312C317.349 88.4001 318.724 82.4391 321.431 77.0541C324.165 71.755 328.036 67.129 332.763 63.512C338.044 59.5066 344.021 56.5229 350.388 54.7118C357.748 52.5467 365.382 51.4745 373.052 51.5292C382.125 51.5233 391.065 53.7065 399.123 57.8946C407.14 61.9636 414.471 67.2691 420.852 73.6168C423.34 76.2425 423.261 78.9318 420.646 81.6848L409.33 93.8424C408.861 94.3962 408.239 94.8004 407.544 95.0041C406.848 95.2078 406.108 95.2014 405.415 94.9882C403.995 94.3994 402.675 93.5942 401.5 92.6012C399.916 91.2327 397.966 89.705 395.842 88.0501C393.617 86.3394 391.276 84.7863 388.837 83.4034C386.274 81.9505 383.585 80.7364 380.802 79.7752C377.979 78.8141 375.018 78.3255 372.037 78.3271C369.316 78.3351 366.598 78.5419 363.907 78.9477C361.25 79.3106 358.673 80.1173 356.283 81.3347C354.017 82.4995 352.069 84.2054 350.609 86.2996C348.977 88.8489 348.183 91.8501 348.343 94.8768C348.284 97.329 349.043 99.7319 350.498 101.704C352.167 103.833 354.283 105.566 356.695 106.78C359.748 108.39 362.929 109.741 366.205 110.822C369.834 112.063 373.86 113.304 378.25 114.545C384.957 116.509 391.56 118.82 398.03 121.468C403.859 123.796 409.323 126.951 414.259 130.841C418.801 134.464 422.575 138.966 425.353 144.08C428.234 149.776 429.651 156.106 429.474 162.492C429.561 169.309 427.925 176.039 424.719 182.049C421.579 187.878 417.261 192.985 412.04 197.039C406.545 201.298 400.336 204.531 393.703 206.587C376.381 212.047 357.643 210.717 341.258 202.863C331.657 198.432 323.007 192.168 315.789 184.42Z" fill="white"/>
    <path d="M441.908 157.32C441.871 150.323 443.226 143.388 445.894 136.922C448.561 130.459 452.487 124.593 457.44 119.669C462.332 114.824 468.098 110.957 474.43 108.276C484.21 104.124 495 102.991 505.424 105.02C515.848 107.049 525.433 112.149 532.96 119.669C537.806 124.545 541.683 130.303 544.387 136.633C547.218 143.157 548.658 150.204 548.619 157.32C548.663 164.406 547.221 171.422 544.387 177.912C541.677 184.178 537.799 189.865 532.96 194.668C528.094 199.463 522.366 203.285 516.081 205.935C502.745 211.452 487.781 211.452 474.445 205.935C468.126 203.279 462.357 199.456 457.44 194.668C452.474 189.816 448.536 184.006 445.862 177.588C443.187 171.171 441.831 164.277 441.876 157.32H441.908ZM469.31 157.527C469.242 164.613 471.9 171.454 476.728 176.623C479.053 179.099 481.856 181.069 484.969 182.415C488.234 183.779 491.735 184.48 495.271 184.48C498.807 184.48 502.308 183.779 505.573 182.415C508.684 181.069 511.489 179.099 513.814 176.623C516.162 174.113 518.046 171.203 519.377 168.029C522.124 161.338 522.124 153.827 519.377 147.135C518.041 143.969 516.158 141.066 513.814 138.558C511.473 136.074 508.674 134.069 505.573 132.655C502.324 131.23 498.816 130.495 495.271 130.495C491.726 130.495 488.218 131.23 484.969 132.655C481.868 134.069 479.069 136.074 476.728 138.558C471.892 143.724 469.234 150.566 469.31 157.654V157.527Z" fill="white"/>
    <path d="M579.207 106.207C580.824 106.097 582.437 106.463 583.851 107.257C584.905 107.968 585.726 108.976 586.212 110.153C586.799 111.507 587.214 112.928 587.449 114.386C587.734 115.977 588.067 117.664 588.479 119.462C592.164 115.462 596.486 112.106 601.269 109.533C606.811 106.449 613.064 104.88 619.4 104.981C625.255 104.894 631.067 105.976 636.501 108.164C641.232 110.085 645.511 112.973 649.07 116.646C652.566 120.344 655.235 124.75 656.899 129.567C658.703 134.834 659.593 140.372 659.53 145.942V202.831C659.619 203.538 659.554 204.254 659.34 204.932C659.127 205.611 658.769 206.235 658.294 206.762C657.217 207.534 655.904 207.9 654.585 207.796H635.756C633.553 207.796 632.222 207.494 631.731 206.873C631.13 205.691 630.883 204.359 631.018 203.038V150.7C631.13 148.189 630.71 145.681 629.786 143.345C628.864 141.007 627.456 138.894 625.661 137.142C622.036 133.749 617.223 131.93 612.268 132.081C609.894 132.115 607.547 132.607 605.358 133.53C602.963 134.488 600.713 135.772 598.67 137.349C596.608 138.937 594.83 140.862 593.408 143.046C592.004 145.172 591.054 147.567 590.618 150.079V203.245C590.698 203.888 590.649 204.539 590.474 205.163C590.301 205.785 590.005 206.367 589.604 206.873C588.365 207.634 586.91 207.959 585.468 207.796H566.924C566.216 207.911 565.49 207.884 564.791 207.718C564.092 207.551 563.433 207.249 562.851 206.826C562.13 205.804 561.799 204.556 561.916 203.309V112.429C561.916 108.271 563.976 106.196 568.097 106.207H579.207Z" fill="white"/>
    <path d="M701.933 112.015C702.076 112.699 702.425 114.052 702.964 116.041C703.502 118.03 703.867 119.383 703.994 120.083C705.366 118.27 706.848 116.542 708.431 114.911C710.2 113.068 712.173 111.434 714.311 110.042C716.54 108.576 718.92 107.359 721.412 106.414C724.085 105.43 726.916 104.938 729.764 104.965H731.714C732.374 104.973 733.032 105.048 733.679 105.188C735.939 105.413 738.158 105.949 740.272 106.78C742.678 107.675 745.019 108.738 747.277 109.962C749.258 111.001 751.124 112.249 752.84 113.686C753.449 114.1 753.964 114.636 754.355 115.26C754.745 115.885 755 116.585 755.107 117.314C755.031 118.355 754.674 119.356 754.077 120.21L745.835 133.657C745.428 134.476 744.814 135.175 744.055 135.683C743.296 136.192 742.418 136.491 741.508 136.553C740.644 136.47 739.806 136.222 739.036 135.821C737.926 135.344 736.769 134.755 735.533 134.071C733.977 132.895 732.278 131.922 730.477 131.174C728.862 130.59 727.154 130.31 725.437 130.347C722.738 130.28 720.058 130.816 717.592 131.918C715.124 133.019 712.933 134.656 711.173 136.712C709.523 138.636 708.23 140.84 707.354 143.221C706.488 145.504 706.032 147.923 706.007 150.366V202.704C706.007 206.152 704.152 207.876 700.444 207.876H683.422C679.86 207.876 678.076 206.152 678.065 202.704V112.015C678.005 111.265 678.116 110.51 678.39 109.809C678.665 109.109 679.097 108.481 679.65 107.973C680.691 107.101 682.003 106.622 683.358 106.62H696.545C697.231 106.56 697.923 106.673 698.554 106.951C699.187 107.23 699.738 107.663 700.158 108.212C700.941 109.38 701.54 110.664 701.933 112.015Z" fill="white"/>
    <path d="M788.04 234.6V182.76H804.816C805.224 182.76 806.064 182.772 807.336 182.796C808.608 182.82 809.832 182.904 811.008 183.048C815.184 183.552 818.724 185.004 821.628 187.404C824.532 189.804 826.74 192.852 828.252 196.548C829.764 200.244 830.52 204.288 830.52 208.68C830.52 213.072 829.764 217.116 828.252 220.812C826.74 224.508 824.532 227.556 821.628 229.956C818.724 232.356 815.184 233.808 811.008 234.312C809.832 234.456 808.608 234.54 807.336 234.564C806.064 234.588 805.224 234.6 804.816 234.6H788.04ZM797.976 225.384H804.816C805.464 225.384 806.34 225.372 807.444 225.348C808.548 225.3 809.544 225.192 810.432 225.024C812.688 224.568 814.524 223.512 815.94 221.856C817.38 220.2 818.436 218.208 819.108 215.88C819.804 213.552 820.152 211.152 820.152 208.68C820.152 206.088 819.792 203.628 819.072 201.3C818.376 198.972 817.308 197.004 815.868 195.396C814.428 193.788 812.616 192.768 810.432 192.336C809.544 192.144 808.548 192.036 807.444 192.012C806.34 191.988 805.464 191.976 804.816 191.976H797.976V225.384ZM861.189 235.68C856.005 235.68 851.529 234.552 847.761 232.296C844.017 230.04 841.125 226.884 839.085 222.828C837.069 218.772 836.061 214.056 836.061 208.68C836.061 203.304 837.069 198.588 839.085 194.532C841.125 190.476 844.017 187.32 847.761 185.064C851.529 182.808 856.005 181.68 861.189 181.68C866.373 181.68 870.837 182.808 874.581 185.064C878.349 187.32 881.241 190.476 883.257 194.532C885.297 198.588 886.317 203.304 886.317 208.68C886.317 214.056 885.297 218.772 883.257 222.828C881.241 226.884 878.349 230.04 874.581 232.296C870.837 234.552 866.373 235.68 861.189 235.68ZM861.189 226.464C864.477 226.512 867.213 225.804 869.397 224.34C871.581 222.876 873.213 220.8 874.293 218.112C875.397 215.424 875.949 212.28 875.949 208.68C875.949 205.08 875.397 201.96 874.293 199.32C873.213 196.68 871.581 194.628 869.397 193.164C867.213 191.7 864.477 190.944 861.189 190.896C857.901 190.848 855.165 191.556 852.981 193.02C850.797 194.484 849.153 196.56 848.049 199.248C846.969 201.936 846.429 205.08 846.429 208.68C846.429 212.28 846.969 215.4 848.049 218.04C849.153 220.68 850.797 222.732 852.981 224.196C855.165 225.66 857.901 226.416 861.189 226.464ZM915.536 235.68C910.352 235.68 905.876 234.552 902.108 232.296C898.364 230.04 895.472 226.884 893.432 222.828C891.416 218.772 890.408 214.056 890.408 208.68C890.408 203.304 891.416 198.588 893.432 194.532C895.472 190.476 898.364 187.32 902.108 185.064C905.876 182.808 910.352 181.68 915.536 181.68C921.488 181.68 926.48 183.156 930.512 186.108C934.568 189.06 937.424 193.056 939.08 198.096L929.216 200.832C928.256 197.688 926.636 195.252 924.356 193.524C922.076 191.772 919.136 190.896 915.536 190.896C912.248 190.896 909.5 191.628 907.292 193.092C905.108 194.556 903.464 196.62 902.36 199.284C901.256 201.948 900.704 205.08 900.704 208.68C900.704 212.28 901.256 215.412 902.36 218.076C903.464 220.74 905.108 222.804 907.292 224.268C909.5 225.732 912.248 226.464 915.536 226.464C919.136 226.464 922.076 225.588 924.356 223.836C926.636 222.084 928.256 219.648 929.216 216.528L939.08 219.264C937.424 224.304 934.568 228.3 930.512 231.252C926.48 234.204 921.488 235.68 915.536 235.68ZM968.554 235.68C964.714 235.68 961.246 235.008 958.15 233.664C955.078 232.296 952.546 230.352 950.554 227.832C948.586 225.288 947.338 222.264 946.81 218.76L957.034 217.248C957.754 220.224 959.242 222.516 961.498 224.124C963.754 225.732 966.322 226.536 969.202 226.536C970.81 226.536 972.37 226.284 973.882 225.78C975.394 225.276 976.63 224.532 977.59 223.548C978.574 222.564 979.066 221.352 979.066 219.912C979.066 219.384 978.982 218.88 978.814 218.4C978.67 217.896 978.418 217.428 978.058 216.996C977.698 216.564 977.182 216.156 976.51 215.772C975.862 215.388 975.034 215.04 974.026 214.728L960.562 210.768C959.554 210.48 958.378 210.072 957.034 209.544C955.714 209.016 954.43 208.26 953.182 207.276C951.934 206.292 950.89 204.996 950.05 203.388C949.234 201.756 948.826 199.704 948.826 197.232C948.826 193.752 949.702 190.86 951.454 188.556C953.206 186.252 955.546 184.536 958.474 183.408C961.402 182.28 964.642 181.728 968.194 181.752C971.77 181.8 974.962 182.412 977.77 183.588C980.578 184.764 982.93 186.48 984.826 188.736C986.722 190.968 988.09 193.704 988.93 196.944L978.346 198.744C977.962 197.064 977.254 195.648 976.222 194.496C975.19 193.344 973.954 192.468 972.514 191.868C971.098 191.268 969.61 190.944 968.05 190.896C966.514 190.848 965.062 191.064 963.694 191.544C962.35 192 961.246 192.672 960.382 193.56C959.542 194.448 959.122 195.504 959.122 196.728C959.122 197.856 959.47 198.78 960.166 199.5C960.862 200.196 961.738 200.76 962.794 201.192C963.85 201.624 964.93 201.984 966.034 202.272L975.034 204.72C976.378 205.08 977.866 205.56 979.498 206.16C981.13 206.736 982.69 207.552 984.178 208.608C985.69 209.64 986.926 211.008 987.886 212.712C988.87 214.416 989.362 216.576 989.362 219.192C989.362 221.976 988.774 224.412 987.598 226.5C986.446 228.564 984.886 230.28 982.918 231.648C980.95 232.992 978.718 234 976.222 234.672C973.75 235.344 971.194 235.68 968.554 235.68Z" fill="#B9E2FF"/>
    <defs>
        <linearGradient id="paint0_linear_142_177" x1="268.412" y1="123.987" x2="203.008" y2="57.2298" gradientUnits="userSpaceOnUse">
            <stop offset="0.51509" stop-color="white"/>
            <stop offset="0.725505" stop-color="white" stop-opacity="0.65"/>
            <stop offset="0.978587" stop-color="white" stop-opacity="0"/>
        </linearGradient>
        <linearGradient id="paint1_linear_142_177" x1="21.7999" y1="121.262" x2="80.3545" y2="182.606" gradientUnits="userSpaceOnUse">
            <stop offset="0.568469" stop-color="white"/>
            <stop offset="0.764843" stop-color="white" stop-opacity="0.65"/>
            <stop offset="1" stop-color="white" stop-opacity="0"/>
        </linearGradient>
    </defs>
</svg>
