<svg width="1920" height="812" viewBox="0 0 1920 812" fill="none" xmlns="http://www.w3.org/2000/svg">
<g clip-path="url(#clip0_22_2)">
<g clip-path="url(#clip1_22_2)">
<path d="M9.91821e-05 25.6094C27.9639 25.6094 50.633 3.13267 50.633 -24.5938C50.633 -52.3202 27.9639 -74.7969 9.91821e-05 -74.7969C-27.9637 -74.7969 -50.6328 -52.3202 -50.6328 -24.5938C-50.6328 3.13267 -27.9637 25.6094 9.91821e-05 25.6094Z" fill="#1329EC"/>
<path d="M9.91821e-05 126.016C27.9639 126.016 50.633 103.539 50.633 75.8125C50.633 48.0861 27.9639 25.6094 9.91821e-05 25.6094C-27.9637 25.6094 -50.6328 48.0861 -50.6328 75.8125C-50.6328 103.539 -27.9637 126.016 9.91821e-05 126.016Z" fill="#1358EC"/>
<path d="M9.91821e-05 226.422C27.9639 226.422 50.633 203.945 50.633 176.219C50.633 148.492 27.9639 126.016 9.91821e-05 126.016C-27.9637 126.016 -50.6328 148.492 -50.6328 176.219C-50.6328 203.945 -27.9637 226.422 9.91821e-05 226.422Z" fill="#1387EC"/>
<path d="M9.91821e-05 326.828C27.9639 326.828 50.633 304.351 50.633 276.625C50.633 248.899 27.9639 226.422 9.91821e-05 226.422C-27.9637 226.422 -50.6328 248.899 -50.6328 276.625C-50.6328 304.351 -27.9637 326.828 9.91821e-05 326.828Z" fill="#13B2EC"/>
<path d="M9.91821e-05 427.234C27.9639 427.234 50.633 404.758 50.633 377.031C50.633 349.305 27.9639 326.828 9.91821e-05 326.828C-27.9637 326.828 -50.6328 349.305 -50.6328 377.031C-50.6328 404.758 -27.9637 427.234 9.91821e-05 427.234Z" fill="#13D6EC"/>
<path d="M9.91821e-05 527.641C27.9639 527.641 50.633 505.164 50.633 477.438C50.633 449.711 27.9639 427.234 9.91821e-05 427.234C-27.9637 427.234 -50.6328 449.711 -50.6328 477.438C-50.6328 505.164 -27.9637 527.641 9.91821e-05 527.641Z" fill="#13ECE1"/>
<path d="M9.91821e-05 628.047C27.9639 628.047 50.633 605.57 50.633 577.844C50.633 550.117 27.9639 527.641 9.91821e-05 527.641C-27.9637 527.641 -50.6328 550.117 -50.6328 577.844C-50.6328 605.57 -27.9637 628.047 9.91821e-05 628.047Z" fill="#13ECE1"/>
<path d="M9.91821e-05 728.453C27.9639 728.453 50.633 705.976 50.633 678.25C50.633 650.524 27.9639 628.047 9.91821e-05 628.047C-27.9637 628.047 -50.6328 650.524 -50.6328 678.25C-50.6328 705.976 -27.9637 728.453 9.91821e-05 728.453Z" fill="#13ECC4"/>
<path d="M9.91821e-05 828.859C27.9639 828.859 50.633 806.383 50.633 778.656C50.633 750.93 27.9639 728.453 9.91821e-05 728.453C-27.9637 728.453 -50.6328 750.93 -50.6328 778.656C-50.6328 806.383 -27.9637 828.859 9.91821e-05 828.859Z" fill="#13ECB2"/>
<path d="M101.266 25.6094C129.23 25.6094 151.899 3.13267 151.899 -24.5938C151.899 -52.3202 129.23 -74.7969 101.266 -74.7969C73.3022 -74.7969 50.6331 -52.3202 50.6331 -24.5938C50.6331 3.13267 73.3022 25.6094 101.266 25.6094Z" fill="#1329EC"/>
<path d="M101.266 126.016C129.23 126.016 151.899 103.539 151.899 75.8125C151.899 48.0861 129.23 25.6094 101.266 25.6094C73.3022 25.6094 50.6331 48.0861 50.6331 75.8125C50.6331 103.539 73.3022 126.016 101.266 126.016Z" fill="#1358EC"/>
<path d="M101.266 226.422C129.23 226.422 151.899 203.945 151.899 176.219C151.899 148.492 129.23 126.016 101.266 126.016C73.3022 126.016 50.6331 148.492 50.6331 176.219C50.6331 203.945 73.3022 226.422 101.266 226.422Z" fill="#1387EC"/>
<path d="M101.266 326.828C129.23 326.828 151.899 304.351 151.899 276.625C151.899 248.899 129.23 226.422 101.266 226.422C73.3022 226.422 50.6331 248.899 50.6331 276.625C50.6331 304.351 73.3022 326.828 101.266 326.828Z" fill="#13B2EC"/>
<path d="M101.266 427.234C129.23 427.234 151.899 404.758 151.899 377.031C151.899 349.305 129.23 326.828 101.266 326.828C73.3022 326.828 50.6331 349.305 50.6331 377.031C50.6331 404.758 73.3022 427.234 101.266 427.234Z" fill="#13D6EC"/>
<path d="M101.266 527.641C129.23 527.641 151.899 505.164 151.899 477.438C151.899 449.711 129.23 427.234 101.266 427.234C73.3022 427.234 50.6331 449.711 50.6331 477.438C50.6331 505.164 73.3022 527.641 101.266 527.641Z" fill="#13ECE1"/>
<path d="M101.266 628.047C129.23 628.047 151.899 605.57 151.899 577.844C151.899 550.117 129.23 527.641 101.266 527.641C73.3022 527.641 50.6331 550.117 50.6331 577.844C50.6331 605.57 73.3022 628.047 101.266 628.047Z" fill="#13ECE1"/>
<path d="M101.266 728.453C129.23 728.453 151.899 705.976 151.899 678.25C151.899 650.524 129.23 628.047 101.266 628.047C73.3022 628.047 50.6331 650.524 50.6331 678.25C50.6331 705.976 73.3022 728.453 101.266 728.453Z" fill="#13ECC4"/>
<path d="M101.266 828.859C129.23 828.859 151.899 806.383 151.899 778.656C151.899 750.93 129.23 728.453 101.266 728.453C73.3022 728.453 50.6331 750.93 50.6331 778.656C50.6331 806.383 73.3022 828.859 101.266 828.859Z" fill="#13ECB2"/>
<path d="M202.532 25.6094C230.496 25.6094 253.165 3.13267 253.165 -24.5938C253.165 -52.3202 230.496 -74.7969 202.532 -74.7969C174.568 -74.7969 151.899 -52.3202 151.899 -24.5938C151.899 3.13267 174.568 25.6094 202.532 25.6094Z" fill="#2913EC"/>
<path d="M202.532 126.016C230.496 126.016 253.165 103.539 253.165 75.8125C253.165 48.0861 230.496 25.6094 202.532 25.6094C174.568 25.6094 151.899 48.0861 151.899 75.8125C151.899 103.539 174.568 126.016 202.532 126.016Z" fill="#1329EC"/>
<path d="M202.532 226.422C230.496 226.422 253.165 203.945 253.165 176.219C253.165 148.492 230.496 126.016 202.532 126.016C174.568 126.016 151.899 148.492 151.899 176.219C151.899 203.945 174.568 226.422 202.532 226.422Z" fill="#1358EC"/>
<path d="M202.532 326.828C230.496 326.828 253.165 304.351 253.165 276.625C253.165 248.899 230.496 226.422 202.532 226.422C174.568 226.422 151.899 248.899 151.899 276.625C151.899 304.351 174.568 326.828 202.532 326.828Z" fill="#1383EC"/>
<path d="M202.532 427.234C230.496 427.234 253.165 404.758 253.165 377.031C253.165 349.305 230.496 326.828 202.532 326.828C174.568 326.828 151.899 349.305 151.899 377.031C151.899 404.758 174.568 427.234 202.532 427.234Z" fill="#13ABEC"/>
<path d="M202.532 527.641C230.496 527.641 253.165 505.164 253.165 477.438C253.165 449.711 230.496 427.234 202.532 427.234C174.568 427.234 151.899 449.711 151.899 477.438C151.899 505.164 174.568 527.641 202.532 527.641Z" fill="#13CFEC"/>
<path d="M202.532 628.047C230.496 628.047 253.165 605.57 253.165 577.844C253.165 550.117 230.496 527.641 202.532 527.641C174.568 527.641 151.899 550.117 151.899 577.844C151.899 605.57 174.568 628.047 202.532 628.047Z" fill="#13CFEC"/>
<path d="M202.532 728.453C230.496 728.453 253.165 705.976 253.165 678.25C253.165 650.524 230.496 628.047 202.532 628.047C174.568 628.047 151.899 650.524 151.899 678.25C151.899 705.976 174.568 728.453 202.532 728.453Z" fill="#13ECEC"/>
<path d="M202.532 828.859C230.496 828.859 253.165 806.383 253.165 778.656C253.165 750.93 230.496 728.453 202.532 728.453C174.568 728.453 151.899 750.93 151.899 778.656C151.899 806.383 174.568 828.859 202.532 828.859Z" fill="#13ECD6"/>
<path d="M303.797 25.6094C331.761 25.6094 354.43 3.13267 354.43 -24.5938C354.43 -52.3202 331.761 -74.7969 303.797 -74.7969C275.834 -74.7969 253.165 -52.3202 253.165 -24.5938C253.165 3.13267 275.834 25.6094 303.797 25.6094Z" fill="#5813EC"/>
<path d="M303.797 126.016C331.761 126.016 354.43 103.539 354.43 75.8125C354.43 48.0861 331.761 25.6094 303.797 25.6094C275.834 25.6094 253.165 48.0861 253.165 75.8125C253.165 103.539 275.834 126.016 303.797 126.016Z" fill="#2913EC"/>
<path d="M303.797 226.422C331.761 226.422 354.43 203.945 354.43 176.219C354.43 148.492 331.761 126.016 303.797 126.016C275.834 126.016 253.165 148.492 253.165 176.219C253.165 203.945 275.834 226.422 303.797 226.422Z" fill="#1329EC"/>
<path d="M303.797 326.828C331.761 326.828 354.43 304.351 354.43 276.625C354.43 248.899 331.761 226.422 303.797 226.422C275.834 226.422 253.165 248.899 253.165 276.625C253.165 304.351 275.834 326.828 303.797 326.828Z" fill="#1358EC"/>
<path d="M303.797 427.234C331.761 427.234 354.43 404.758 354.43 377.031C354.43 349.305 331.761 326.828 303.797 326.828C275.834 326.828 253.165 349.305 253.165 377.031C253.165 404.758 275.834 427.234 303.797 427.234Z" fill="#1380EC"/>
<path d="M303.797 527.641C331.761 527.641 354.43 505.164 354.43 477.438C354.43 449.711 331.761 427.234 303.797 427.234C275.834 427.234 253.165 449.711 253.165 477.438C253.165 505.164 275.834 527.641 303.797 527.641Z" fill="#13A4EC"/>
<path d="M303.797 628.047C331.761 628.047 354.43 605.57 354.43 577.844C354.43 550.117 331.761 527.641 303.797 527.641C275.834 527.641 253.165 550.117 253.165 577.844C253.165 605.57 275.834 628.047 303.797 628.047Z" fill="#13A4EC"/>
<path d="M303.797 728.453C331.761 728.453 354.43 705.976 354.43 678.25C354.43 650.524 331.761 628.047 303.797 628.047C275.834 628.047 253.165 650.524 253.165 678.25C253.165 705.976 275.834 728.453 303.797 728.453Z" fill="#13C1EC"/>
<path d="M303.797 828.859C331.761 828.859 354.43 806.383 354.43 778.656C354.43 750.93 331.761 728.453 303.797 728.453C275.834 728.453 253.165 750.93 253.165 778.656C253.165 806.383 275.834 828.859 303.797 828.859Z" fill="#13DAEC"/>
<path d="M405.063 25.6094C433.027 25.6094 455.696 3.13267 455.696 -24.5938C455.696 -52.3202 433.027 -74.7969 405.063 -74.7969C377.1 -74.7969 354.43 -52.3202 354.43 -24.5938C354.43 3.13267 377.1 25.6094 405.063 25.6094Z" fill="#8313EC"/>
<path d="M405.063 126.016C433.027 126.016 455.696 103.539 455.696 75.8125C455.696 48.0861 433.027 25.6094 405.063 25.6094C377.1 25.6094 354.43 48.0861 354.43 75.8125C354.43 103.539 377.1 126.016 405.063 126.016Z" fill="#5413EC"/>
<path d="M405.063 226.422C433.027 226.422 455.696 203.945 455.696 176.219C455.696 148.492 433.027 126.016 405.063 126.016C377.1 126.016 354.43 148.492 354.43 176.219C354.43 203.945 377.1 226.422 405.063 226.422Z" fill="#2913EC"/>
<path d="M405.063 326.828C433.027 326.828 455.696 304.351 455.696 276.625C455.696 248.899 433.027 226.422 405.063 226.422C377.1 226.422 354.43 248.899 354.43 276.625C354.43 304.351 377.1 326.828 405.063 326.828Z" fill="#1329EC"/>
<path d="M405.063 427.234C433.027 427.234 455.696 404.758 455.696 377.031C455.696 349.305 433.027 326.828 405.063 326.828C377.1 326.828 354.43 349.305 354.43 377.031C354.43 404.758 377.1 427.234 405.063 427.234Z" fill="#1354EC"/>
<path d="M405.063 527.641C433.027 527.641 455.696 505.164 455.696 477.438C455.696 449.711 433.027 427.234 405.063 427.234C377.1 427.234 354.43 449.711 354.43 477.438C354.43 505.164 377.1 527.641 405.063 527.641Z" fill="#1378EC"/>
<path d="M405.063 628.047C433.027 628.047 455.696 605.57 455.696 577.844C455.696 550.117 433.027 527.641 405.063 527.641C377.1 527.641 354.43 550.117 354.43 577.844C354.43 605.57 377.1 628.047 405.063 628.047Z" fill="#1378EC"/>
<path d="M405.063 728.453C433.027 728.453 455.696 705.976 455.696 678.25C455.696 650.524 433.027 628.047 405.063 628.047C377.1 628.047 354.43 650.524 354.43 678.25C354.43 705.976 377.1 728.453 405.063 728.453Z" fill="#1399EC"/>
<path d="M405.063 828.859C433.027 828.859 455.696 806.383 455.696 778.656C455.696 750.93 433.027 728.453 405.063 728.453C377.1 728.453 354.43 750.93 354.43 778.656C354.43 806.383 377.1 828.859 405.063 828.859Z" fill="#13B6EC"/>
<path d="M506.329 25.6094C534.293 25.6094 556.962 3.13267 556.962 -24.5938C556.962 -52.3202 534.293 -74.7969 506.329 -74.7969C478.365 -74.7969 455.696 -52.3202 455.696 -24.5938C455.696 3.13267 478.365 25.6094 506.329 25.6094Z" fill="#A713EC"/>
<path d="M506.329 126.016C534.293 126.016 556.962 103.539 556.962 75.8125C556.962 48.0861 534.293 25.6094 506.329 25.6094C478.365 25.6094 455.696 48.0861 455.696 75.8125C455.696 103.539 478.365 126.016 506.329 126.016Z" fill="#7C13EC"/>
<path d="M506.329 226.422C534.293 226.422 556.962 203.945 556.962 176.219C556.962 148.492 534.293 126.016 506.329 126.016C478.365 126.016 455.696 148.492 455.696 176.219C455.696 203.945 478.365 226.422 506.329 226.422Z" fill="#5113EC"/>
<path d="M506.329 326.828C534.293 326.828 556.962 304.351 556.962 276.625C556.962 248.899 534.293 226.422 506.329 226.422C478.365 226.422 455.696 248.899 455.696 276.625C455.696 304.351 478.365 326.828 506.329 326.828Z" fill="#2513EC"/>
<path d="M506.329 427.234C534.293 427.234 556.962 404.758 556.962 377.031C556.962 349.305 534.293 326.828 506.329 326.828C478.365 326.828 455.696 349.305 455.696 377.031C455.696 404.758 478.365 427.234 506.329 427.234Z" fill="#1329EC"/>
<path d="M506.329 527.641C534.293 527.641 556.962 505.164 556.962 477.438C556.962 449.711 534.293 427.234 506.329 427.234C478.365 427.234 455.696 449.711 455.696 477.438C455.696 505.164 478.365 527.641 506.329 527.641Z" fill="#1351EC"/>
<path d="M506.329 628.047C534.293 628.047 556.962 605.57 556.962 577.844C556.962 550.117 534.293 527.641 506.329 527.641C478.365 527.641 455.696 550.117 455.696 577.844C455.696 605.57 478.365 628.047 506.329 628.047Z" fill="#1351EC"/>
<path d="M506.329 728.453C534.293 728.453 556.962 705.976 556.962 678.25C556.962 650.524 534.293 628.047 506.329 628.047C478.365 628.047 455.696 650.524 455.696 678.25C455.696 705.976 478.365 728.453 506.329 728.453Z" fill="#1371EC"/>
<path d="M506.329 828.859C534.293 828.859 556.962 806.383 556.962 778.656C556.962 750.93 534.293 728.453 506.329 728.453C478.365 728.453 455.696 750.93 455.696 778.656C455.696 806.383 478.365 828.859 506.329 828.859Z" fill="#138EEC"/>
<path d="M607.595 25.6094C635.559 25.6094 658.228 3.13267 658.228 -24.5938C658.228 -52.3202 635.559 -74.7969 607.595 -74.7969C579.631 -74.7969 556.962 -52.3202 556.962 -24.5938C556.962 3.13267 579.631 25.6094 607.595 25.6094Z" fill="#C813EC"/>
<path d="M607.595 126.016C635.559 126.016 658.228 103.539 658.228 75.8125C658.228 48.0861 635.559 25.6094 607.595 25.6094C579.631 25.6094 556.962 48.0861 556.962 75.8125C556.962 103.539 579.631 126.016 607.595 126.016Z" fill="#A013EC"/>
<path d="M607.595 226.422C635.559 226.422 658.228 203.945 658.228 176.219C658.228 148.492 635.559 126.016 607.595 126.016C579.631 126.016 556.962 148.492 556.962 176.219C556.962 203.945 579.631 226.422 607.595 226.422Z" fill="#7513EC"/>
<path d="M607.595 326.828C635.559 326.828 658.228 304.351 658.228 276.625C658.228 248.899 635.559 226.422 607.595 226.422C579.631 226.422 556.962 248.899 556.962 276.625C556.962 304.351 579.631 326.828 607.595 326.828Z" fill="#4913EC"/>
<path d="M607.595 427.234C635.559 427.234 658.228 404.758 658.228 377.031C658.228 349.305 635.559 326.828 607.595 326.828C579.631 326.828 556.962 349.305 556.962 377.031C556.962 404.758 579.631 427.234 607.595 427.234Z" fill="#2213EC"/>
<path d="M607.595 527.641C635.559 527.641 658.228 505.164 658.228 477.438C658.228 449.711 635.559 427.234 607.595 427.234C579.631 427.234 556.962 449.711 556.962 477.438C556.962 505.164 579.631 527.641 607.595 527.641Z" fill="#1329EC"/>
<path d="M607.595 628.047C635.559 628.047 658.228 605.57 658.228 577.844C658.228 550.117 635.559 527.641 607.595 527.641C579.631 527.641 556.962 550.117 556.962 577.844C556.962 605.57 579.631 628.047 607.595 628.047Z" fill="#1329EC"/>
<path d="M607.595 728.453C635.559 728.453 658.228 705.976 658.228 678.25C658.228 650.524 635.559 628.047 607.595 628.047C579.631 628.047 556.962 650.524 556.962 678.25C556.962 705.976 579.631 728.453 607.595 728.453Z" fill="#134DEC"/>
<path d="M607.595 828.859C635.559 828.859 658.228 806.383 658.228 778.656C658.228 750.93 635.559 728.453 607.595 728.453C579.631 728.453 556.962 750.93 556.962 778.656C556.962 806.383 579.631 828.859 607.595 828.859Z" fill="#136AEC"/>
<path d="M708.861 25.6094C736.825 25.6094 759.494 3.13267 759.494 -24.5938C759.494 -52.3202 736.825 -74.7969 708.861 -74.7969C680.897 -74.7969 658.228 -52.3202 658.228 -24.5938C658.228 3.13267 680.897 25.6094 708.861 25.6094Z" fill="#C813EC"/>
<path d="M708.861 126.016C736.825 126.016 759.494 103.539 759.494 75.8125C759.494 48.0861 736.825 25.6094 708.861 25.6094C680.897 25.6094 658.228 48.0861 658.228 75.8125C658.228 103.539 680.897 126.016 708.861 126.016Z" fill="#A013EC"/>
<path d="M708.861 226.422C736.825 226.422 759.494 203.945 759.494 176.219C759.494 148.492 736.825 126.016 708.861 126.016C680.897 126.016 658.228 148.492 658.228 176.219C658.228 203.945 680.897 226.422 708.861 226.422Z" fill="#7513EC"/>
<path d="M708.861 326.828C736.825 326.828 759.494 304.351 759.494 276.625C759.494 248.899 736.825 226.422 708.861 226.422C680.897 226.422 658.228 248.899 658.228 276.625C658.228 304.351 680.897 326.828 708.861 326.828Z" fill="#4913EC"/>
<path d="M708.861 427.234C736.825 427.234 759.494 404.758 759.494 377.031C759.494 349.305 736.825 326.828 708.861 326.828C680.897 326.828 658.228 349.305 658.228 377.031C658.228 404.758 680.897 427.234 708.861 427.234Z" fill="#2213EC"/>
<path d="M708.861 527.641C736.825 527.641 759.494 505.164 759.494 477.438C759.494 449.711 736.825 427.234 708.861 427.234C680.897 427.234 658.228 449.711 658.228 477.438C658.228 505.164 680.897 527.641 708.861 527.641Z" fill="#1329EC"/>
<path d="M708.861 628.047C736.825 628.047 759.494 605.57 759.494 577.844C759.494 550.117 736.825 527.641 708.861 527.641C680.897 527.641 658.228 550.117 658.228 577.844C658.228 605.57 680.897 628.047 708.861 628.047Z" fill="#1329EC"/>
<path d="M708.861 728.453C736.825 728.453 759.494 705.976 759.494 678.25C759.494 650.524 736.825 628.047 708.861 628.047C680.897 628.047 658.228 650.524 658.228 678.25C658.228 705.976 680.897 728.453 708.861 728.453Z" fill="#134DEC"/>
<path d="M708.861 828.859C736.825 828.859 759.494 806.383 759.494 778.656C759.494 750.93 736.825 728.453 708.861 728.453C680.897 728.453 658.228 750.93 658.228 778.656C658.228 806.383 680.897 828.859 708.861 828.859Z" fill="#136AEC"/>
<path d="M810.127 25.6094C838.09 25.6094 860.759 3.13267 860.759 -24.5938C860.759 -52.3202 838.09 -74.7969 810.127 -74.7969C782.163 -74.7969 759.494 -52.3202 759.494 -24.5938C759.494 3.13267 782.163 25.6094 810.127 25.6094Z" fill="#E513EC"/>
<path d="M810.127 126.016C838.09 126.016 860.759 103.539 860.759 75.8125C860.759 48.0861 838.09 25.6094 810.127 25.6094C782.163 25.6094 759.494 48.0861 759.494 75.8125C759.494 103.539 782.163 126.016 810.127 126.016Z" fill="#BD13EC"/>
<path d="M810.127 226.422C838.09 226.422 860.759 203.945 860.759 176.219C860.759 148.492 838.09 126.016 810.127 126.016C782.163 126.016 759.494 148.492 759.494 176.219C759.494 203.945 782.163 226.422 810.127 226.422Z" fill="#9213EC"/>
<path d="M810.127 326.828C838.09 326.828 860.759 304.351 860.759 276.625C860.759 248.899 838.09 226.422 810.127 226.422C782.163 226.422 759.494 248.899 759.494 276.625C759.494 304.351 782.163 326.828 810.127 326.828Z" fill="#6A13EC"/>
<path d="M810.127 427.234C838.09 427.234 860.759 404.758 860.759 377.031C860.759 349.305 838.09 326.828 810.127 326.828C782.163 326.828 759.494 349.305 759.494 377.031C759.494 404.758 782.163 427.234 810.127 427.234Z" fill="#4213EC"/>
<path d="M810.127 527.641C838.09 527.641 860.759 505.164 860.759 477.438C860.759 449.711 838.09 427.234 810.127 427.234C782.163 427.234 759.494 449.711 759.494 477.438C759.494 505.164 782.163 527.641 810.127 527.641Z" fill="#1E13EC"/>
<path d="M810.127 628.047C838.09 628.047 860.759 605.57 860.759 577.844C860.759 550.117 838.09 527.641 810.127 527.641C782.163 527.641 759.494 550.117 759.494 577.844C759.494 605.57 782.163 628.047 810.127 628.047Z" fill="#1E13EC"/>
<path d="M810.127 728.453C838.09 728.453 860.759 705.976 860.759 678.25C860.759 650.524 838.09 628.047 810.127 628.047C782.163 628.047 759.494 650.524 759.494 678.25C759.494 705.976 782.163 728.453 810.127 728.453Z" fill="#1329EC"/>
<path d="M810.127 828.859C838.09 828.859 860.759 806.383 860.759 778.656C860.759 750.93 838.09 728.453 810.127 728.453C782.163 728.453 759.494 750.93 759.494 778.656C759.494 806.383 782.163 828.859 810.127 828.859Z" fill="#1349EC"/>
<path d="M911.393 25.6094C939.356 25.6094 962.026 3.13267 962.026 -24.5938C962.026 -52.3202 939.356 -74.7969 911.393 -74.7969C883.429 -74.7969 860.76 -52.3202 860.76 -24.5938C860.76 3.13267 883.429 25.6094 911.393 25.6094Z" fill="#EC13DD"/>
<path d="M911.393 126.016C939.356 126.016 962.026 103.539 962.026 75.8125C962.026 48.0861 939.356 25.6094 911.393 25.6094C883.429 25.6094 860.76 48.0861 860.76 75.8125C860.76 103.539 883.429 126.016 911.393 126.016Z" fill="#D313EC"/>
<path d="M911.393 226.422C939.356 226.422 962.026 203.945 962.026 176.219C962.026 148.492 939.356 126.016 911.393 126.016C883.429 126.016 860.76 148.492 860.76 176.219C860.76 203.945 883.429 226.422 911.393 226.422Z" fill="#AB13EC"/>
<path d="M911.393 326.828C939.356 326.828 962.026 304.351 962.026 276.625C962.026 248.899 939.356 226.422 911.393 226.422C883.429 226.422 860.76 248.899 860.76 276.625C860.76 304.351 883.429 326.828 911.393 326.828Z" fill="#8713EC"/>
<path d="M911.393 427.234C939.356 427.234 962.026 404.758 962.026 377.031C962.026 349.305 939.356 326.828 911.393 326.828C883.429 326.828 860.76 349.305 860.76 377.031C860.76 404.758 883.429 427.234 911.393 427.234Z" fill="#5F13EC"/>
<path d="M911.393 527.641C939.356 527.641 962.026 505.164 962.026 477.438C962.026 449.711 939.356 427.234 911.393 427.234C883.429 427.234 860.76 449.711 860.76 477.438C860.76 505.164 883.429 527.641 911.393 527.641Z" fill="#3B13EC"/>
<path d="M911.393 628.047C939.356 628.047 962.026 605.57 962.026 577.844C962.026 550.117 939.356 527.641 911.393 527.641C883.429 527.641 860.76 550.117 860.76 577.844C860.76 605.57 883.429 628.047 911.393 628.047Z" fill="#3B13EC"/>
<path d="M911.393 728.453C939.356 728.453 962.026 705.976 962.026 678.25C962.026 650.524 939.356 628.047 911.393 628.047C883.429 628.047 860.76 650.524 860.76 678.25C860.76 705.976 883.429 728.453 911.393 728.453Z" fill="#1A13EC"/>
<path d="M911.393 828.859C939.356 828.859 962.026 806.383 962.026 778.656C962.026 750.93 939.356 728.453 911.393 728.453C883.429 728.453 860.76 750.93 860.76 778.656C860.76 806.383 883.429 828.859 911.393 828.859Z" fill="#1329EC"/>
<path d="M1012.66 25.6094C1040.62 25.6094 1063.29 3.13267 1063.29 -24.5938C1063.29 -52.3202 1040.62 -74.7969 1012.66 -74.7969C984.695 -74.7969 962.025 -52.3202 962.025 -24.5938C962.025 3.13267 984.695 25.6094 1012.66 25.6094Z" fill="#EC13CF"/>
<path d="M1012.66 126.016C1040.62 126.016 1063.29 103.539 1063.29 75.8125C1063.29 48.0861 1040.62 25.6094 1012.66 25.6094C984.695 25.6094 962.025 48.0861 962.025 75.8125C962.025 103.539 984.695 126.016 1012.66 126.016Z" fill="#E513EC"/>
<path d="M1012.66 226.422C1040.62 226.422 1063.29 203.945 1063.29 176.219C1063.29 148.492 1040.62 126.016 1012.66 126.016C984.695 126.016 962.025 148.492 962.025 176.219C962.025 203.945 984.695 226.422 1012.66 226.422Z" fill="#C113EC"/>
<path d="M1012.66 326.828C1040.62 326.828 1063.29 304.351 1063.29 276.625C1063.29 248.899 1040.62 226.422 1012.66 226.422C984.695 226.422 962.025 248.899 962.025 276.625C962.025 304.351 984.695 326.828 1012.66 326.828Z" fill="#9913EC"/>
<path d="M1012.66 427.234C1040.62 427.234 1063.29 404.758 1063.29 377.031C1063.29 349.305 1040.62 326.828 1012.66 326.828C984.695 326.828 962.025 349.305 962.025 377.031C962.025 404.758 984.695 427.234 1012.66 427.234Z" fill="#7513EC"/>
<path d="M1012.66 527.641C1040.62 527.641 1063.29 505.164 1063.29 477.438C1063.29 449.711 1040.62 427.234 1012.66 427.234C984.695 427.234 962.025 449.711 962.025 477.438C962.025 505.164 984.695 527.641 1012.66 527.641Z" fill="#5413EC"/>
<path d="M1012.66 628.047C1040.62 628.047 1063.29 605.57 1063.29 577.844C1063.29 550.117 1040.62 527.641 1012.66 527.641C984.695 527.641 962.025 550.117 962.025 577.844C962.025 605.57 984.695 628.047 1012.66 628.047Z" fill="#5413EC"/>
<path d="M1012.66 728.453C1040.62 728.453 1063.29 705.976 1063.29 678.25C1063.29 650.524 1040.62 628.047 1012.66 628.047C984.695 628.047 962.025 650.524 962.025 678.25C962.025 705.976 984.695 728.453 1012.66 728.453Z" fill="#3413EC"/>
<path d="M1012.66 828.859C1040.62 828.859 1063.29 806.383 1063.29 778.656C1063.29 750.93 1040.62 728.453 1012.66 728.453C984.695 728.453 962.025 750.93 962.025 778.656C962.025 806.383 984.695 828.859 1012.66 828.859Z" fill="#1713EC"/>
<path d="M1113.92 25.6094C1141.89 25.6094 1164.56 3.13267 1164.56 -24.5938C1164.56 -52.3202 1141.89 -74.7969 1113.92 -74.7969C1085.96 -74.7969 1063.29 -52.3202 1063.29 -24.5938C1063.29 3.13267 1085.96 25.6094 1113.92 25.6094Z" fill="#EC13C4"/>
<path d="M1113.92 126.016C1141.89 126.016 1164.56 103.539 1164.56 75.8125C1164.56 48.0861 1141.89 25.6094 1113.92 25.6094C1085.96 25.6094 1063.29 48.0861 1063.29 75.8125C1063.29 103.539 1085.96 126.016 1113.92 126.016Z" fill="#EC13E5"/>
<path d="M1113.92 226.422C1141.89 226.422 1164.56 203.945 1164.56 176.219C1164.56 148.492 1141.89 126.016 1113.92 126.016C1085.96 126.016 1063.29 148.492 1063.29 176.219C1063.29 203.945 1085.96 226.422 1113.92 226.422Z" fill="#CF13EC"/>
<path d="M1113.92 326.828C1141.89 326.828 1164.56 304.351 1164.56 276.625C1164.56 248.899 1141.89 226.422 1113.92 226.422C1085.96 226.422 1063.29 248.899 1063.29 276.625C1063.29 304.351 1085.96 326.828 1113.92 326.828Z" fill="#AB13EC"/>
<path d="M1113.92 427.234C1141.89 427.234 1164.56 404.758 1164.56 377.031C1164.56 349.305 1141.89 326.828 1113.92 326.828C1085.96 326.828 1063.29 349.305 1063.29 377.031C1063.29 404.758 1085.96 427.234 1113.92 427.234Z" fill="#8713EC"/>
<path d="M1113.92 527.641C1141.89 527.641 1164.56 505.164 1164.56 477.438C1164.56 449.711 1141.89 427.234 1113.92 427.234C1085.96 427.234 1063.29 449.711 1063.29 477.438C1063.29 505.164 1085.96 527.641 1113.92 527.641Z" fill="#6613EC"/>
<path d="M1113.92 628.047C1141.89 628.047 1164.56 605.57 1164.56 577.844C1164.56 550.117 1141.89 527.641 1113.92 527.641C1085.96 527.641 1063.29 550.117 1063.29 577.844C1063.29 605.57 1085.96 628.047 1113.92 628.047Z" fill="#6613EC"/>
<path d="M1113.92 728.453C1141.89 728.453 1164.56 705.976 1164.56 678.25C1164.56 650.524 1141.89 628.047 1113.92 628.047C1085.96 628.047 1063.29 650.524 1063.29 678.25C1063.29 705.976 1085.96 728.453 1113.92 728.453Z" fill="#4913EC"/>
<path d="M1113.92 828.859C1141.89 828.859 1164.56 806.383 1164.56 778.656C1164.56 750.93 1141.89 728.453 1113.92 728.453C1085.96 728.453 1063.29 750.93 1063.29 778.656C1063.29 806.383 1085.96 828.859 1113.92 828.859Z" fill="#2C13EC"/>
<path d="M1215.19 25.6094C1243.15 25.6094 1265.82 3.13267 1265.82 -24.5938C1265.82 -52.3202 1243.15 -74.7969 1215.19 -74.7969C1187.23 -74.7969 1164.56 -52.3202 1164.56 -24.5938C1164.56 3.13267 1187.23 25.6094 1215.19 25.6094Z" fill="#EC13BD"/>
<path d="M1215.19 126.016C1243.15 126.016 1265.82 103.539 1265.82 75.8125C1265.82 48.0861 1243.15 25.6094 1215.19 25.6094C1187.23 25.6094 1164.56 48.0861 1164.56 75.8125C1164.56 103.539 1187.23 126.016 1215.19 126.016Z" fill="#EC13DD"/>
<path d="M1215.19 226.422C1243.15 226.422 1265.82 203.945 1265.82 176.219C1265.82 148.492 1243.15 126.016 1215.19 126.016C1187.23 126.016 1164.56 148.492 1164.56 176.219C1164.56 203.945 1187.23 226.422 1215.19 226.422Z" fill="#DA13EC"/>
<path d="M1215.19 326.828C1243.15 326.828 1265.82 304.351 1265.82 276.625C1265.82 248.899 1243.15 226.422 1215.19 226.422C1187.23 226.422 1164.56 248.899 1164.56 276.625C1164.56 304.351 1187.23 326.828 1215.19 326.828Z" fill="#B913EC"/>
<path d="M1215.19 427.234C1243.15 427.234 1265.82 404.758 1265.82 377.031C1265.82 349.305 1243.15 326.828 1215.19 326.828C1187.23 326.828 1164.56 349.305 1164.56 377.031C1164.56 404.758 1187.23 427.234 1215.19 427.234Z" fill="#9513EC"/>
<path d="M1215.19 527.641C1243.15 527.641 1265.82 505.164 1265.82 477.438C1265.82 449.711 1243.15 427.234 1215.19 427.234C1187.23 427.234 1164.56 449.711 1164.56 477.438C1164.56 505.164 1187.23 527.641 1215.19 527.641Z" fill="#7813EC"/>
<path d="M1215.19 628.047C1243.15 628.047 1265.82 605.57 1265.82 577.844C1265.82 550.117 1243.15 527.641 1215.19 527.641C1187.23 527.641 1164.56 550.117 1164.56 577.844C1164.56 605.57 1187.23 628.047 1215.19 628.047Z" fill="#7813EC"/>
<path d="M1215.19 728.453C1243.15 728.453 1265.82 705.976 1265.82 678.25C1265.82 650.524 1243.15 628.047 1215.19 628.047C1187.23 628.047 1164.56 650.524 1164.56 678.25C1164.56 705.976 1187.23 728.453 1215.19 728.453Z" fill="#5B13EC"/>
<path d="M1215.19 828.859C1243.15 828.859 1265.82 806.383 1265.82 778.656C1265.82 750.93 1243.15 728.453 1215.19 728.453C1187.23 728.453 1164.56 750.93 1164.56 778.656C1164.56 806.383 1187.23 828.859 1215.19 828.859Z" fill="#3E13EC"/>
<path d="M1316.46 25.6094C1344.42 25.6094 1367.09 3.13267 1367.09 -24.5938C1367.09 -52.3202 1344.42 -74.7969 1316.46 -74.7969C1288.49 -74.7969 1265.82 -52.3202 1265.82 -24.5938C1265.82 3.13267 1288.49 25.6094 1316.46 25.6094Z" fill="#EC13BD"/>
<path d="M1316.46 126.016C1344.42 126.016 1367.09 103.539 1367.09 75.8125C1367.09 48.0861 1344.42 25.6094 1316.46 25.6094C1288.49 25.6094 1265.82 48.0861 1265.82 75.8125C1265.82 103.539 1288.49 126.016 1316.46 126.016Z" fill="#EC13DD"/>
<path d="M1316.46 226.422C1344.42 226.422 1367.09 203.945 1367.09 176.219C1367.09 148.492 1344.42 126.016 1316.46 126.016C1288.49 126.016 1265.82 148.492 1265.82 176.219C1265.82 203.945 1288.49 226.422 1316.46 226.422Z" fill="#DA13EC"/>
<path d="M1316.46 326.828C1344.42 326.828 1367.09 304.351 1367.09 276.625C1367.09 248.899 1344.42 226.422 1316.46 226.422C1288.49 226.422 1265.82 248.899 1265.82 276.625C1265.82 304.351 1288.49 326.828 1316.46 326.828Z" fill="#B913EC"/>
<path d="M1316.46 427.234C1344.42 427.234 1367.09 404.758 1367.09 377.031C1367.09 349.305 1344.42 326.828 1316.46 326.828C1288.49 326.828 1265.82 349.305 1265.82 377.031C1265.82 404.758 1288.49 427.234 1316.46 427.234Z" fill="#9513EC"/>
<path d="M1316.46 527.641C1344.42 527.641 1367.09 505.164 1367.09 477.438C1367.09 449.711 1344.42 427.234 1316.46 427.234C1288.49 427.234 1265.82 449.711 1265.82 477.438C1265.82 505.164 1288.49 527.641 1316.46 527.641Z" fill="#7813EC"/>
<path d="M1316.46 628.047C1344.42 628.047 1367.09 605.57 1367.09 577.844C1367.09 550.117 1344.42 527.641 1316.46 527.641C1288.49 527.641 1265.82 550.117 1265.82 577.844C1265.82 605.57 1288.49 628.047 1316.46 628.047Z" fill="#7813EC"/>
<path d="M1316.46 728.453C1344.42 728.453 1367.09 705.976 1367.09 678.25C1367.09 650.524 1344.42 628.047 1316.46 628.047C1288.49 628.047 1265.82 650.524 1265.82 678.25C1265.82 705.976 1288.49 728.453 1316.46 728.453Z" fill="#5B13EC"/>
<path d="M1316.46 828.859C1344.42 828.859 1367.09 806.383 1367.09 778.656C1367.09 750.93 1344.42 728.453 1316.46 728.453C1288.49 728.453 1265.82 750.93 1265.82 778.656C1265.82 806.383 1288.49 828.859 1316.46 828.859Z" fill="#3E13EC"/>
<path d="M1417.72 25.6094C1445.69 25.6094 1468.35 3.13267 1468.35 -24.5938C1468.35 -52.3202 1445.69 -74.7969 1417.72 -74.7969C1389.76 -74.7969 1367.09 -52.3202 1367.09 -24.5938C1367.09 3.13267 1389.76 25.6094 1417.72 25.6094Z" fill="#EC13B6"/>
<path d="M1417.72 126.016C1445.69 126.016 1468.35 103.539 1468.35 75.8125C1468.35 48.0861 1445.69 25.6094 1417.72 25.6094C1389.76 25.6094 1367.09 48.0861 1367.09 75.8125C1367.09 103.539 1389.76 126.016 1417.72 126.016Z" fill="#EC13D6"/>
<path d="M1417.72 226.422C1445.69 226.422 1468.35 203.945 1468.35 176.219C1468.35 148.492 1445.69 126.016 1417.72 126.016C1389.76 126.016 1367.09 148.492 1367.09 176.219C1367.09 203.945 1389.76 226.422 1417.72 226.422Z" fill="#E113EC"/>
<path d="M1417.72 326.828C1445.69 326.828 1468.35 304.351 1468.35 276.625C1468.35 248.899 1445.69 226.422 1417.72 226.422C1389.76 226.422 1367.09 248.899 1367.09 276.625C1367.09 304.351 1389.76 326.828 1417.72 326.828Z" fill="#C113EC"/>
<path d="M1417.72 427.234C1445.69 427.234 1468.35 404.758 1468.35 377.031C1468.35 349.305 1445.69 326.828 1417.72 326.828C1389.76 326.828 1367.09 349.305 1367.09 377.031C1367.09 404.758 1389.76 427.234 1417.72 427.234Z" fill="#A413EC"/>
<path d="M1417.72 527.641C1445.69 527.641 1468.35 505.164 1468.35 477.438C1468.35 449.711 1445.69 427.234 1417.72 427.234C1389.76 427.234 1367.09 449.711 1367.09 477.438C1367.09 505.164 1389.76 527.641 1417.72 527.641Z" fill="#8313EC"/>
<path d="M1417.72 628.047C1445.69 628.047 1468.35 605.57 1468.35 577.844C1468.35 550.117 1445.69 527.641 1417.72 527.641C1389.76 527.641 1367.09 550.117 1367.09 577.844C1367.09 605.57 1389.76 628.047 1417.72 628.047Z" fill="#8313EC"/>
<path d="M1417.72 728.453C1445.69 728.453 1468.35 705.976 1468.35 678.25C1468.35 650.524 1445.69 628.047 1417.72 628.047C1389.76 628.047 1367.09 650.524 1367.09 678.25C1367.09 705.976 1389.76 728.453 1417.72 728.453Z" fill="#6A13EC"/>
<path d="M1417.72 828.859C1445.69 828.859 1468.35 806.383 1468.35 778.656C1468.35 750.93 1445.69 728.453 1417.72 728.453C1389.76 728.453 1367.09 750.93 1367.09 778.656C1367.09 806.383 1389.76 828.859 1417.72 828.859Z" fill="#5113EC"/>
<path d="M1518.99 25.6094C1546.95 25.6094 1569.62 3.13267 1569.62 -24.5938C1569.62 -52.3202 1546.95 -74.7969 1518.99 -74.7969C1491.02 -74.7969 1468.35 -52.3202 1468.35 -24.5938C1468.35 3.13267 1491.02 25.6094 1518.99 25.6094Z" fill="#EC13B2"/>
<path d="M1518.99 126.016C1546.95 126.016 1569.62 103.539 1569.62 75.8125C1569.62 48.0861 1546.95 25.6094 1518.99 25.6094C1491.02 25.6094 1468.35 48.0861 1468.35 75.8125C1468.35 103.539 1491.02 126.016 1518.99 126.016Z" fill="#EC13CF"/>
<path d="M1518.99 226.422C1546.95 226.422 1569.62 203.945 1569.62 176.219C1569.62 148.492 1546.95 126.016 1518.99 126.016C1491.02 126.016 1468.35 148.492 1468.35 176.219C1468.35 203.945 1491.02 226.422 1518.99 226.422Z" fill="#E813EC"/>
<path d="M1518.99 326.828C1546.95 326.828 1569.62 304.351 1569.62 276.625C1569.62 248.899 1546.95 226.422 1518.99 226.422C1491.02 226.422 1468.35 248.899 1468.35 276.625C1468.35 304.351 1491.02 326.828 1518.99 326.828Z" fill="#CB13EC"/>
<path d="M1518.99 427.234C1546.95 427.234 1569.62 404.758 1569.62 377.031C1569.62 349.305 1546.95 326.828 1518.99 326.828C1491.02 326.828 1468.35 349.305 1468.35 377.031C1468.35 404.758 1491.02 427.234 1518.99 427.234Z" fill="#AB13EC"/>
<path d="M1518.99 527.641C1546.95 527.641 1569.62 505.164 1569.62 477.438C1569.62 449.711 1546.95 427.234 1518.99 427.234C1491.02 427.234 1468.35 449.711 1468.35 477.438C1468.35 505.164 1491.02 527.641 1518.99 527.641Z" fill="#8E13EC"/>
<path d="M1518.99 628.047C1546.95 628.047 1569.62 605.57 1569.62 577.844C1569.62 550.117 1546.95 527.641 1518.99 527.641C1491.02 527.641 1468.35 550.117 1468.35 577.844C1468.35 605.57 1491.02 628.047 1518.99 628.047Z" fill="#8E13EC"/>
<path d="M1518.99 728.453C1546.95 728.453 1569.62 705.976 1569.62 678.25C1569.62 650.524 1546.95 628.047 1518.99 628.047C1491.02 628.047 1468.35 650.524 1468.35 678.25C1468.35 705.976 1491.02 728.453 1518.99 728.453Z" fill="#7513EC"/>
<path d="M1518.99 828.859C1546.95 828.859 1569.62 806.383 1569.62 778.656C1569.62 750.93 1546.95 728.453 1518.99 728.453C1491.02 728.453 1468.35 750.93 1468.35 778.656C1468.35 806.383 1491.02 828.859 1518.99 828.859Z" fill="#5F13EC"/>
<path d="M1620.25 25.6094C1648.22 25.6094 1670.89 3.13267 1670.89 -24.5938C1670.89 -52.3202 1648.22 -74.7969 1620.25 -74.7969C1592.29 -74.7969 1569.62 -52.3202 1569.62 -24.5938C1569.62 3.13267 1592.29 25.6094 1620.25 25.6094Z" fill="#EC13AE"/>
<path d="M1620.25 126.016C1648.22 126.016 1670.89 103.539 1670.89 75.8125C1670.89 48.0861 1648.22 25.6094 1620.25 25.6094C1592.29 25.6094 1569.62 48.0861 1569.62 75.8125C1569.62 103.539 1592.29 126.016 1620.25 126.016Z" fill="#EC13CB"/>
<path d="M1620.25 226.422C1648.22 226.422 1670.89 203.945 1670.89 176.219C1670.89 148.492 1648.22 126.016 1620.25 126.016C1592.29 126.016 1569.62 148.492 1569.62 176.219C1569.62 203.945 1592.29 226.422 1620.25 226.422Z" fill="#EC13E8"/>
<path d="M1620.25 326.828C1648.22 326.828 1670.89 304.351 1670.89 276.625C1670.89 248.899 1648.22 226.422 1620.25 226.422C1592.29 226.422 1569.62 248.899 1569.62 276.625C1569.62 304.351 1592.29 326.828 1620.25 326.828Z" fill="#D313EC"/>
<path d="M1620.25 427.234C1648.22 427.234 1670.89 404.758 1670.89 377.031C1670.89 349.305 1648.22 326.828 1620.25 326.828C1592.29 326.828 1569.62 349.305 1569.62 377.031C1569.62 404.758 1592.29 427.234 1620.25 427.234Z" fill="#B613EC"/>
<path d="M1620.25 527.641C1648.22 527.641 1670.89 505.164 1670.89 477.438C1670.89 449.711 1648.22 427.234 1620.25 427.234C1592.29 427.234 1569.62 449.711 1569.62 477.438C1569.62 505.164 1592.29 527.641 1620.25 527.641Z" fill="#9C13EC"/>
<path d="M1620.25 628.047C1648.22 628.047 1670.89 605.57 1670.89 577.844C1670.89 550.117 1648.22 527.641 1620.25 527.641C1592.29 527.641 1569.62 550.117 1569.62 577.844C1569.62 605.57 1592.29 628.047 1620.25 628.047Z" fill="#9C13EC"/>
<path d="M1620.25 728.453C1648.22 728.453 1670.89 705.976 1670.89 678.25C1670.89 650.524 1648.22 628.047 1620.25 628.047C1592.29 628.047 1569.62 650.524 1569.62 678.25C1569.62 705.976 1592.29 728.453 1620.25 728.453Z" fill="#8313EC"/>
<path d="M1620.25 828.859C1648.22 828.859 1670.89 806.383 1670.89 778.656C1670.89 750.93 1648.22 728.453 1620.25 728.453C1592.29 728.453 1569.62 750.93 1569.62 778.656C1569.62 806.383 1592.29 828.859 1620.25 828.859Z" fill="#6A13EC"/>
<path d="M1721.52 25.6094C1749.48 25.6094 1772.15 3.13267 1772.15 -24.5938C1772.15 -52.3202 1749.48 -74.7969 1721.52 -74.7969C1693.56 -74.7969 1670.89 -52.3202 1670.89 -24.5938C1670.89 3.13267 1693.56 25.6094 1721.52 25.6094Z" fill="#EC13AB"/>
<path d="M1721.52 126.016C1749.48 126.016 1772.15 103.539 1772.15 75.8125C1772.15 48.0861 1749.48 25.6094 1721.52 25.6094C1693.56 25.6094 1670.89 48.0861 1670.89 75.8125C1670.89 103.539 1693.56 126.016 1721.52 126.016Z" fill="#EC13C8"/>
<path d="M1721.52 226.422C1749.48 226.422 1772.15 203.945 1772.15 176.219C1772.15 148.492 1749.48 126.016 1721.52 126.016C1693.56 126.016 1670.89 148.492 1670.89 176.219C1670.89 203.945 1693.56 226.422 1721.52 226.422Z" fill="#EC13E1"/>
<path d="M1721.52 326.828C1749.48 326.828 1772.15 304.351 1772.15 276.625C1772.15 248.899 1749.48 226.422 1721.52 226.422C1693.56 226.422 1670.89 248.899 1670.89 276.625C1670.89 304.351 1693.56 326.828 1721.52 326.828Z" fill="#DA13EC"/>
<path d="M1721.52 427.234C1749.48 427.234 1772.15 404.758 1772.15 377.031C1772.15 349.305 1749.48 326.828 1721.52 326.828C1693.56 326.828 1670.89 349.305 1670.89 377.031C1670.89 404.758 1693.56 427.234 1721.52 427.234Z" fill="#C113EC"/>
<path d="M1721.52 527.641C1749.48 527.641 1772.15 505.164 1772.15 477.438C1772.15 449.711 1749.48 427.234 1721.52 427.234C1693.56 427.234 1670.89 449.711 1670.89 477.438C1670.89 505.164 1693.56 527.641 1721.52 527.641Z" fill="#A713EC"/>
<path d="M1721.52 628.047C1749.48 628.047 1772.15 605.57 1772.15 577.844C1772.15 550.117 1749.48 527.641 1721.52 527.641C1693.56 527.641 1670.89 550.117 1670.89 577.844C1670.89 605.57 1693.56 628.047 1721.52 628.047Z" fill="#A713EC"/>
<path d="M1721.52 728.453C1749.48 728.453 1772.15 705.976 1772.15 678.25C1772.15 650.524 1749.48 628.047 1721.52 628.047C1693.56 628.047 1670.89 650.524 1670.89 678.25C1670.89 705.976 1693.56 728.453 1721.52 728.453Z" fill="#8E13EC"/>
<path d="M1721.52 828.859C1749.48 828.859 1772.15 806.383 1772.15 778.656C1772.15 750.93 1749.48 728.453 1721.52 728.453C1693.56 728.453 1670.89 750.93 1670.89 778.656C1670.89 806.383 1693.56 828.859 1721.52 828.859Z" fill="#7813EC"/>
<path d="M1822.79 25.6094C1850.75 25.6094 1873.42 3.13267 1873.42 -24.5938C1873.42 -52.3202 1850.75 -74.7969 1822.79 -74.7969C1794.82 -74.7969 1772.15 -52.3202 1772.15 -24.5938C1772.15 3.13267 1794.82 25.6094 1822.79 25.6094Z" fill="#EC13A7"/>
<path d="M1822.79 126.016C1850.75 126.016 1873.42 103.539 1873.42 75.8125C1873.42 48.0861 1850.75 25.6094 1822.79 25.6094C1794.82 25.6094 1772.15 48.0861 1772.15 75.8125C1772.15 103.539 1794.82 126.016 1822.79 126.016Z" fill="#EC13C1"/>
<path d="M1822.79 226.422C1850.75 226.422 1873.42 203.945 1873.42 176.219C1873.42 148.492 1850.75 126.016 1822.79 126.016C1794.82 126.016 1772.15 148.492 1772.15 176.219C1772.15 203.945 1794.82 226.422 1822.79 226.422Z" fill="#EC13DA"/>
<path d="M1822.79 326.828C1850.75 326.828 1873.42 304.351 1873.42 276.625C1873.42 248.899 1850.75 226.422 1822.79 226.422C1794.82 226.422 1772.15 248.899 1772.15 276.625C1772.15 304.351 1794.82 326.828 1822.79 326.828Z" fill="#E513EC"/>
<path d="M1822.79 427.234C1850.75 427.234 1873.42 404.758 1873.42 377.031C1873.42 349.305 1850.75 326.828 1822.79 326.828C1794.82 326.828 1772.15 349.305 1772.15 377.031C1772.15 404.758 1794.82 427.234 1822.79 427.234Z" fill="#CB13EC"/>
<path d="M1822.79 527.641C1850.75 527.641 1873.42 505.164 1873.42 477.438C1873.42 449.711 1850.75 427.234 1822.79 427.234C1794.82 427.234 1772.15 449.711 1772.15 477.438C1772.15 505.164 1794.82 527.641 1822.79 527.641Z" fill="#B213EC"/>
<path d="M1822.79 628.047C1850.75 628.047 1873.42 605.57 1873.42 577.844C1873.42 550.117 1850.75 527.641 1822.79 527.641C1794.82 527.641 1772.15 550.117 1772.15 577.844C1772.15 605.57 1794.82 628.047 1822.79 628.047Z" fill="#B213EC"/>
<path d="M1822.79 728.453C1850.75 728.453 1873.42 705.976 1873.42 678.25C1873.42 650.524 1850.75 628.047 1822.79 628.047C1794.82 628.047 1772.15 650.524 1772.15 678.25C1772.15 705.976 1794.82 728.453 1822.79 728.453Z" fill="#9C13EC"/>
<path d="M1822.79 828.859C1850.75 828.859 1873.42 806.383 1873.42 778.656C1873.42 750.93 1850.75 728.453 1822.79 728.453C1794.82 728.453 1772.15 750.93 1772.15 778.656C1772.15 806.383 1794.82 828.859 1822.79 828.859Z" fill="#8A13EC"/>
<path d="M1924.05 25.6094C1952.01 25.6094 1974.68 3.13267 1974.68 -24.5938C1974.68 -52.3202 1952.01 -74.7969 1924.05 -74.7969C1896.09 -74.7969 1873.42 -52.3202 1873.42 -24.5938C1873.42 3.13267 1896.09 25.6094 1924.05 25.6094Z" fill="#EC13A7"/>
<path d="M1924.05 126.016C1952.01 126.016 1974.68 103.539 1974.68 75.8125C1974.68 48.0861 1952.01 25.6094 1924.05 25.6094C1896.09 25.6094 1873.42 48.0861 1873.42 75.8125C1873.42 103.539 1896.09 126.016 1924.05 126.016Z" fill="#EC13C1"/>
<path d="M1924.05 226.422C1952.01 226.422 1974.68 203.945 1974.68 176.219C1974.68 148.492 1952.01 126.016 1924.05 126.016C1896.09 126.016 1873.42 148.492 1873.42 176.219C1873.42 203.945 1896.09 226.422 1924.05 226.422Z" fill="#EC13DA"/>
<path d="M1924.05 326.828C1952.01 326.828 1974.68 304.351 1974.68 276.625C1974.68 248.899 1952.01 226.422 1924.05 226.422C1896.09 226.422 1873.42 248.899 1873.42 276.625C1873.42 304.351 1896.09 326.828 1924.05 326.828Z" fill="#E513EC"/>
<path d="M1924.05 427.234C1952.01 427.234 1974.68 404.758 1974.68 377.031C1974.68 349.305 1952.01 326.828 1924.05 326.828C1896.09 326.828 1873.42 349.305 1873.42 377.031C1873.42 404.758 1896.09 427.234 1924.05 427.234Z" fill="#CB13EC"/>
<path d="M1924.05 527.641C1952.01 527.641 1974.68 505.164 1974.68 477.438C1974.68 449.711 1952.01 427.234 1924.05 427.234C1896.09 427.234 1873.42 449.711 1873.42 477.438C1873.42 505.164 1896.09 527.641 1924.05 527.641Z" fill="#B213EC"/>
<path d="M1924.05 628.047C1952.01 628.047 1974.68 605.57 1974.68 577.844C1974.68 550.117 1952.01 527.641 1924.05 527.641C1896.09 527.641 1873.42 550.117 1873.42 577.844C1873.42 605.57 1896.09 628.047 1924.05 628.047Z" fill="#B213EC"/>
<path d="M1924.05 728.453C1952.01 728.453 1974.68 705.976 1974.68 678.25C1974.68 650.524 1952.01 628.047 1924.05 628.047C1896.09 628.047 1873.42 650.524 1873.42 678.25C1873.42 705.976 1896.09 728.453 1924.05 728.453Z" fill="#9C13EC"/>
<path d="M1924.05 828.859C1952.01 828.859 1974.68 806.383 1974.68 778.656C1974.68 750.93 1952.01 728.453 1924.05 728.453C1896.09 728.453 1873.42 750.93 1873.42 778.656C1873.42 806.383 1896.09 828.859 1924.05 828.859Z" fill="#8A13EC"/>
<path d="M50.6329 75.8125C78.5967 75.8125 101.266 53.3358 101.266 25.6094C101.266 -2.11704 78.5967 -24.5938 50.6329 -24.5938C22.6691 -24.5938 0 -2.11704 0 25.6094C0 53.3358 22.6691 75.8125 50.6329 75.8125Z" fill="#1358EC"/>
<path d="M50.6329 176.219C78.5967 176.219 101.266 153.742 101.266 126.016C101.266 98.2892 78.5967 75.8125 50.6329 75.8125C22.6691 75.8125 0 98.2892 0 126.016C0 153.742 22.6691 176.219 50.6329 176.219Z" fill="#1387EC"/>
<path d="M50.6329 276.625C78.5967 276.625 101.266 254.148 101.266 226.422C101.266 198.695 78.5967 176.219 50.6329 176.219C22.6691 176.219 0 198.695 0 226.422C0 254.148 22.6691 276.625 50.6329 276.625Z" fill="#1387EC"/>
<path d="M50.6329 377.031C78.5967 377.031 101.266 354.555 101.266 326.828C101.266 299.102 78.5967 276.625 50.6329 276.625C22.6691 276.625 0 299.102 0 326.828C0 354.555 22.6691 377.031 50.6329 377.031Z" fill="#13B2EC"/>
<path d="M50.6329 477.438C78.5967 477.438 101.266 454.961 101.266 427.234C101.266 399.508 78.5967 377.031 50.6329 377.031C22.6691 377.031 0 399.508 0 427.234C0 454.961 22.6691 477.438 50.6329 477.438Z" fill="#13D6EC"/>
<path d="M50.6329 577.844C78.5967 577.844 101.266 555.367 101.266 527.641C101.266 499.914 78.5967 477.438 50.6329 477.438C22.6691 477.438 0 499.914 0 527.641C0 555.367 22.6691 577.844 50.6329 577.844Z" fill="#13ECE1"/>
<path d="M50.6329 678.25C78.5967 678.25 101.266 655.773 101.266 628.047C101.266 600.32 78.5967 577.844 50.6329 577.844C22.6691 577.844 0 600.32 0 628.047C0 655.773 22.6691 678.25 50.6329 678.25Z" fill="#13ECC4"/>
<path d="M50.6329 778.656C78.5967 778.656 101.266 756.18 101.266 728.453C101.266 700.727 78.5967 678.25 50.6329 678.25C22.6691 678.25 0 700.727 0 728.453C0 756.18 22.6691 778.656 50.6329 778.656Z" fill="#13ECB2"/>
<path d="M50.6329 879.062C78.5967 879.062 101.266 856.586 101.266 828.859C101.266 801.133 78.5967 778.656 50.6329 778.656C22.6691 778.656 0 801.133 0 828.859C0 856.586 22.6691 879.062 50.6329 879.062Z" fill="#13ECA7"/>
<path d="M151.899 75.8125C179.863 75.8125 202.532 53.3358 202.532 25.6094C202.532 -2.11704 179.863 -24.5938 151.899 -24.5938C123.935 -24.5938 101.266 -2.11704 101.266 25.6094C101.266 53.3358 123.935 75.8125 151.899 75.8125Z" fill="#1329EC"/>
<path d="M151.899 176.219C179.863 176.219 202.532 153.742 202.532 126.016C202.532 98.2892 179.863 75.8125 151.899 75.8125C123.935 75.8125 101.266 98.2892 101.266 126.016C101.266 153.742 123.935 176.219 151.899 176.219Z" fill="#1358EC"/>
<path d="M151.899 276.625C179.863 276.625 202.532 254.148 202.532 226.422C202.532 198.695 179.863 176.219 151.899 176.219C123.935 176.219 101.266 198.695 101.266 226.422C101.266 254.148 123.935 276.625 151.899 276.625Z" fill="#1358EC"/>
<path d="M151.899 377.031C179.863 377.031 202.532 354.555 202.532 326.828C202.532 299.102 179.863 276.625 151.899 276.625C123.935 276.625 101.266 299.102 101.266 326.828C101.266 354.555 123.935 377.031 151.899 377.031Z" fill="#1383EC"/>
<path d="M151.899 477.438C179.863 477.438 202.532 454.961 202.532 427.234C202.532 399.508 179.863 377.031 151.899 377.031C123.935 377.031 101.266 399.508 101.266 427.234C101.266 454.961 123.935 477.438 151.899 477.438Z" fill="#13ABEC"/>
<path d="M151.899 577.844C179.863 577.844 202.532 555.367 202.532 527.641C202.532 499.914 179.863 477.438 151.899 477.438C123.935 477.438 101.266 499.914 101.266 527.641C101.266 555.367 123.935 577.844 151.899 577.844Z" fill="#13CFEC"/>
<path d="M151.899 678.25C179.863 678.25 202.532 655.773 202.532 628.047C202.532 600.32 179.863 577.844 151.899 577.844C123.935 577.844 101.266 600.32 101.266 628.047C101.266 655.773 123.935 678.25 151.899 678.25Z" fill="#13ECEC"/>
<path d="M151.899 778.656C179.863 778.656 202.532 756.18 202.532 728.453C202.532 700.727 179.863 678.25 151.899 678.25C123.935 678.25 101.266 700.727 101.266 728.453C101.266 756.18 123.935 778.656 151.899 778.656Z" fill="#13ECD6"/>
<path d="M151.899 879.062C179.863 879.062 202.532 856.586 202.532 828.859C202.532 801.133 179.863 778.656 151.899 778.656C123.935 778.656 101.266 801.133 101.266 828.859C101.266 856.586 123.935 879.062 151.899 879.062Z" fill="#13ECC8"/>
<path d="M253.165 75.8125C281.128 75.8125 303.798 53.3358 303.798 25.6094C303.798 -2.11704 281.128 -24.5938 253.165 -24.5938C225.201 -24.5938 202.532 -2.11704 202.532 25.6094C202.532 53.3358 225.201 75.8125 253.165 75.8125Z" fill="#2913EC"/>
<path d="M253.165 176.219C281.128 176.219 303.798 153.742 303.798 126.016C303.798 98.2892 281.128 75.8125 253.165 75.8125C225.201 75.8125 202.532 98.2892 202.532 126.016C202.532 153.742 225.201 176.219 253.165 176.219Z" fill="#1329EC"/>
<path d="M253.165 276.625C281.128 276.625 303.798 254.148 303.798 226.422C303.798 198.695 281.128 176.219 253.165 176.219C225.201 176.219 202.532 198.695 202.532 226.422C202.532 254.148 225.201 276.625 253.165 276.625Z" fill="#1329EC"/>
<path d="M253.165 377.031C281.128 377.031 303.798 354.555 303.798 326.828C303.798 299.102 281.128 276.625 253.165 276.625C225.201 276.625 202.532 299.102 202.532 326.828C202.532 354.555 225.201 377.031 253.165 377.031Z" fill="#1358EC"/>
<path d="M253.165 477.438C281.128 477.438 303.798 454.961 303.798 427.234C303.798 399.508 281.128 377.031 253.165 377.031C225.201 377.031 202.532 399.508 202.532 427.234C202.532 454.961 225.201 477.438 253.165 477.438Z" fill="#1380EC"/>
<path d="M253.165 577.844C281.128 577.844 303.798 555.367 303.798 527.641C303.798 499.914 281.128 477.438 253.165 477.438C225.201 477.438 202.532 499.914 202.532 527.641C202.532 555.367 225.201 577.844 253.165 577.844Z" fill="#13A4EC"/>
<path d="M253.165 678.25C281.128 678.25 303.798 655.773 303.798 628.047C303.798 600.32 281.128 577.844 253.165 577.844C225.201 577.844 202.532 600.32 202.532 628.047C202.532 655.773 225.201 678.25 253.165 678.25Z" fill="#13C1EC"/>
<path d="M253.165 778.656C281.128 778.656 303.798 756.18 303.798 728.453C303.798 700.727 281.128 678.25 253.165 678.25C225.201 678.25 202.532 700.727 202.532 728.453C202.532 756.18 225.201 778.656 253.165 778.656Z" fill="#13DAEC"/>
<path d="M253.165 879.062C281.128 879.062 303.798 856.586 303.798 828.859C303.798 801.133 281.128 778.656 253.165 778.656C225.201 778.656 202.532 801.133 202.532 828.859C202.532 856.586 225.201 879.062 253.165 879.062Z" fill="#13ECEC"/>
<path d="M354.43 75.8125C382.394 75.8125 405.063 53.3358 405.063 25.6094C405.063 -2.11704 382.394 -24.5938 354.43 -24.5938C326.466 -24.5938 303.797 -2.11704 303.797 25.6094C303.797 53.3358 326.466 75.8125 354.43 75.8125Z" fill="#5413EC"/>
<path d="M354.43 176.219C382.394 176.219 405.063 153.742 405.063 126.016C405.063 98.2892 382.394 75.8125 354.43 75.8125C326.466 75.8125 303.797 98.2892 303.797 126.016C303.797 153.742 326.466 176.219 354.43 176.219Z" fill="#2913EC"/>
<path d="M354.43 276.625C382.394 276.625 405.063 254.148 405.063 226.422C405.063 198.695 382.394 176.219 354.43 176.219C326.466 176.219 303.797 198.695 303.797 226.422C303.797 254.148 326.466 276.625 354.43 276.625Z" fill="#2913EC"/>
<path d="M354.43 377.031C382.394 377.031 405.063 354.555 405.063 326.828C405.063 299.102 382.394 276.625 354.43 276.625C326.466 276.625 303.797 299.102 303.797 326.828C303.797 354.555 326.466 377.031 354.43 377.031Z" fill="#1329EC"/>
<path d="M354.43 477.438C382.394 477.438 405.063 454.961 405.063 427.234C405.063 399.508 382.394 377.031 354.43 377.031C326.466 377.031 303.797 399.508 303.797 427.234C303.797 454.961 326.466 477.438 354.43 477.438Z" fill="#1354EC"/>
<path d="M354.43 577.844C382.394 577.844 405.063 555.367 405.063 527.641C405.063 499.914 382.394 477.438 354.43 477.438C326.466 477.438 303.797 499.914 303.797 527.641C303.797 555.367 326.466 577.844 354.43 577.844Z" fill="#1378EC"/>
<path d="M354.43 678.25C382.394 678.25 405.063 655.773 405.063 628.047C405.063 600.32 382.394 577.844 354.43 577.844C326.466 577.844 303.797 600.32 303.797 628.047C303.797 655.773 326.466 678.25 354.43 678.25Z" fill="#1399EC"/>
<path d="M354.43 778.656C382.394 778.656 405.063 756.18 405.063 728.453C405.063 700.727 382.394 678.25 354.43 678.25C326.466 678.25 303.797 700.727 303.797 728.453C303.797 756.18 326.466 778.656 354.43 778.656Z" fill="#13B6EC"/>
<path d="M354.43 879.062C382.394 879.062 405.063 856.586 405.063 828.859C405.063 801.133 382.394 778.656 354.43 778.656C326.466 778.656 303.797 801.133 303.797 828.859C303.797 856.586 326.466 879.062 354.43 879.062Z" fill="#13C8EC"/>
<path d="M455.696 75.8125C483.66 75.8125 506.329 53.3358 506.329 25.6094C506.329 -2.11704 483.66 -24.5938 455.696 -24.5938C427.732 -24.5938 405.063 -2.11704 405.063 25.6094C405.063 53.3358 427.732 75.8125 455.696 75.8125Z" fill="#7C13EC"/>
<path d="M455.696 176.219C483.66 176.219 506.329 153.742 506.329 126.016C506.329 98.2892 483.66 75.8125 455.696 75.8125C427.732 75.8125 405.063 98.2892 405.063 126.016C405.063 153.742 427.732 176.219 455.696 176.219Z" fill="#5113EC"/>
<path d="M455.696 276.625C483.66 276.625 506.329 254.148 506.329 226.422C506.329 198.695 483.66 176.219 455.696 176.219C427.732 176.219 405.063 198.695 405.063 226.422C405.063 254.148 427.732 276.625 455.696 276.625Z" fill="#5113EC"/>
<path d="M455.696 377.031C483.66 377.031 506.329 354.555 506.329 326.828C506.329 299.102 483.66 276.625 455.696 276.625C427.732 276.625 405.063 299.102 405.063 326.828C405.063 354.555 427.732 377.031 455.696 377.031Z" fill="#2513EC"/>
<path d="M455.696 477.438C483.66 477.438 506.329 454.961 506.329 427.234C506.329 399.508 483.66 377.031 455.696 377.031C427.732 377.031 405.063 399.508 405.063 427.234C405.063 454.961 427.732 477.438 455.696 477.438Z" fill="#1329EC"/>
<path d="M455.696 577.844C483.66 577.844 506.329 555.367 506.329 527.641C506.329 499.914 483.66 477.438 455.696 477.438C427.732 477.438 405.063 499.914 405.063 527.641C405.063 555.367 427.732 577.844 455.696 577.844Z" fill="#1351EC"/>
<path d="M455.696 678.25C483.66 678.25 506.329 655.773 506.329 628.047C506.329 600.32 483.66 577.844 455.696 577.844C427.732 577.844 405.063 600.32 405.063 628.047C405.063 655.773 427.732 678.25 455.696 678.25Z" fill="#1371EC"/>
<path d="M455.696 778.656C483.66 778.656 506.329 756.18 506.329 728.453C506.329 700.727 483.66 678.25 455.696 678.25C427.732 678.25 405.063 700.727 405.063 728.453C405.063 756.18 427.732 778.656 455.696 778.656Z" fill="#138EEC"/>
<path d="M455.696 879.062C483.66 879.062 506.329 856.586 506.329 828.859C506.329 801.133 483.66 778.656 455.696 778.656C427.732 778.656 405.063 801.133 405.063 828.859C405.063 856.586 427.732 879.062 455.696 879.062Z" fill="#13A4EC"/>
<path d="M556.962 75.8125C584.926 75.8125 607.595 53.3358 607.595 25.6094C607.595 -2.11704 584.926 -24.5938 556.962 -24.5938C528.998 -24.5938 506.329 -2.11704 506.329 25.6094C506.329 53.3358 528.998 75.8125 556.962 75.8125Z" fill="#A013EC"/>
<path d="M556.962 176.219C584.926 176.219 607.595 153.742 607.595 126.016C607.595 98.2892 584.926 75.8125 556.962 75.8125C528.998 75.8125 506.329 98.2892 506.329 126.016C506.329 153.742 528.998 176.219 556.962 176.219Z" fill="#7513EC"/>
<path d="M556.962 276.625C584.926 276.625 607.595 254.148 607.595 226.422C607.595 198.695 584.926 176.219 556.962 176.219C528.998 176.219 506.329 198.695 506.329 226.422C506.329 254.148 528.998 276.625 556.962 276.625Z" fill="#7513EC"/>
<path d="M556.962 377.031C584.926 377.031 607.595 354.555 607.595 326.828C607.595 299.102 584.926 276.625 556.962 276.625C528.998 276.625 506.329 299.102 506.329 326.828C506.329 354.555 528.998 377.031 556.962 377.031Z" fill="#4913EC"/>
<path d="M556.962 477.438C584.926 477.438 607.595 454.961 607.595 427.234C607.595 399.508 584.926 377.031 556.962 377.031C528.998 377.031 506.329 399.508 506.329 427.234C506.329 454.961 528.998 477.438 556.962 477.438Z" fill="#2213EC"/>
<path d="M556.962 577.844C584.926 577.844 607.595 555.367 607.595 527.641C607.595 499.914 584.926 477.438 556.962 477.438C528.998 477.438 506.329 499.914 506.329 527.641C506.329 555.367 528.998 577.844 556.962 577.844Z" fill="#1329EC"/>
<path d="M556.962 678.25C584.926 678.25 607.595 655.773 607.595 628.047C607.595 600.32 584.926 577.844 556.962 577.844C528.998 577.844 506.329 600.32 506.329 628.047C506.329 655.773 528.998 678.25 556.962 678.25Z" fill="#134DEC"/>
<path d="M556.962 778.656C584.926 778.656 607.595 756.18 607.595 728.453C607.595 700.727 584.926 678.25 556.962 678.25C528.998 678.25 506.329 700.727 506.329 728.453C506.329 756.18 528.998 778.656 556.962 778.656Z" fill="#136AEC"/>
<path d="M556.962 879.062C584.926 879.062 607.595 856.586 607.595 828.859C607.595 801.133 584.926 778.656 556.962 778.656C528.998 778.656 506.329 801.133 506.329 828.859C506.329 856.586 528.998 879.062 556.962 879.062Z" fill="#1383EC"/>
<path d="M658.228 75.8125C686.191 75.8125 708.861 53.3358 708.861 25.6094C708.861 -2.11704 686.191 -24.5938 658.228 -24.5938C630.264 -24.5938 607.595 -2.11704 607.595 25.6094C607.595 53.3358 630.264 75.8125 658.228 75.8125Z" fill="#A013EC"/>
<path d="M658.228 176.219C686.191 176.219 708.861 153.742 708.861 126.016C708.861 98.2892 686.191 75.8125 658.228 75.8125C630.264 75.8125 607.595 98.2892 607.595 126.016C607.595 153.742 630.264 176.219 658.228 176.219Z" fill="#7513EC"/>
<path d="M658.228 276.625C686.191 276.625 708.861 254.148 708.861 226.422C708.861 198.695 686.191 176.219 658.228 176.219C630.264 176.219 607.595 198.695 607.595 226.422C607.595 254.148 630.264 276.625 658.228 276.625Z" fill="#7513EC"/>
<path d="M658.228 377.031C686.191 377.031 708.861 354.555 708.861 326.828C708.861 299.102 686.191 276.625 658.228 276.625C630.264 276.625 607.595 299.102 607.595 326.828C607.595 354.555 630.264 377.031 658.228 377.031Z" fill="#4913EC"/>
<path d="M658.228 477.438C686.191 477.438 708.861 454.961 708.861 427.234C708.861 399.508 686.191 377.031 658.228 377.031C630.264 377.031 607.595 399.508 607.595 427.234C607.595 454.961 630.264 477.438 658.228 477.438Z" fill="#2213EC"/>
<path d="M658.228 577.844C686.191 577.844 708.861 555.367 708.861 527.641C708.861 499.914 686.191 477.438 658.228 477.438C630.264 477.438 607.595 499.914 607.595 527.641C607.595 555.367 630.264 577.844 658.228 577.844Z" fill="#1329EC"/>
<path d="M658.228 678.25C686.191 678.25 708.861 655.773 708.861 628.047C708.861 600.32 686.191 577.844 658.228 577.844C630.264 577.844 607.595 600.32 607.595 628.047C607.595 655.773 630.264 678.25 658.228 678.25Z" fill="#134DEC"/>
<path d="M658.228 778.656C686.191 778.656 708.861 756.18 708.861 728.453C708.861 700.727 686.191 678.25 658.228 678.25C630.264 678.25 607.595 700.727 607.595 728.453C607.595 756.18 630.264 778.656 658.228 778.656Z" fill="#136AEC"/>
<path d="M658.228 879.062C686.191 879.062 708.861 856.586 708.861 828.859C708.861 801.133 686.191 778.656 658.228 778.656C630.264 778.656 607.595 801.133 607.595 828.859C607.595 856.586 630.264 879.062 658.228 879.062Z" fill="#1383EC"/>
<path d="M759.494 75.8125C787.458 75.8125 810.127 53.3358 810.127 25.6094C810.127 -2.11704 787.458 -24.5938 759.494 -24.5938C731.53 -24.5938 708.861 -2.11704 708.861 25.6094C708.861 53.3358 731.53 75.8125 759.494 75.8125Z" fill="#BD13EC"/>
<path d="M759.494 176.219C787.458 176.219 810.127 153.742 810.127 126.016C810.127 98.2892 787.458 75.8125 759.494 75.8125C731.53 75.8125 708.861 98.2892 708.861 126.016C708.861 153.742 731.53 176.219 759.494 176.219Z" fill="#9213EC"/>
<path d="M759.494 276.625C787.458 276.625 810.127 254.148 810.127 226.422C810.127 198.695 787.458 176.219 759.494 176.219C731.53 176.219 708.861 198.695 708.861 226.422C708.861 254.148 731.53 276.625 759.494 276.625Z" fill="#9213EC"/>
<path d="M759.494 377.031C787.458 377.031 810.127 354.555 810.127 326.828C810.127 299.102 787.458 276.625 759.494 276.625C731.53 276.625 708.861 299.102 708.861 326.828C708.861 354.555 731.53 377.031 759.494 377.031Z" fill="#6A13EC"/>
<path d="M759.494 477.438C787.458 477.438 810.127 454.961 810.127 427.234C810.127 399.508 787.458 377.031 759.494 377.031C731.53 377.031 708.861 399.508 708.861 427.234C708.861 454.961 731.53 477.438 759.494 477.438Z" fill="#4213EC"/>
<path d="M759.494 577.844C787.458 577.844 810.127 555.367 810.127 527.641C810.127 499.914 787.458 477.438 759.494 477.438C731.53 477.438 708.861 499.914 708.861 527.641C708.861 555.367 731.53 577.844 759.494 577.844Z" fill="#1E13EC"/>
<path d="M759.494 678.25C787.458 678.25 810.127 655.773 810.127 628.047C810.127 600.32 787.458 577.844 759.494 577.844C731.53 577.844 708.861 600.32 708.861 628.047C708.861 655.773 731.53 678.25 759.494 678.25Z" fill="#1329EC"/>
<path d="M759.494 778.656C787.458 778.656 810.127 756.18 810.127 728.453C810.127 700.727 787.458 678.25 759.494 678.25C731.53 678.25 708.861 700.727 708.861 728.453C708.861 756.18 731.53 778.656 759.494 778.656Z" fill="#1349EC"/>
<path d="M759.494 879.062C787.458 879.062 810.127 856.586 810.127 828.859C810.127 801.133 787.458 778.656 759.494 778.656C731.53 778.656 708.861 801.133 708.861 828.859C708.861 856.586 731.53 879.062 759.494 879.062Z" fill="#1363EC"/>
<path d="M860.759 75.8125C888.723 75.8125 911.392 53.3358 911.392 25.6094C911.392 -2.11704 888.723 -24.5938 860.759 -24.5938C832.796 -24.5938 810.126 -2.11704 810.126 25.6094C810.126 53.3358 832.796 75.8125 860.759 75.8125Z" fill="#D313EC"/>
<path d="M860.759 176.219C888.723 176.219 911.392 153.742 911.392 126.016C911.392 98.2892 888.723 75.8125 860.759 75.8125C832.796 75.8125 810.126 98.2892 810.126 126.016C810.126 153.742 832.796 176.219 860.759 176.219Z" fill="#AB13EC"/>
<path d="M860.759 276.625C888.723 276.625 911.392 254.148 911.392 226.422C911.392 198.695 888.723 176.219 860.759 176.219C832.796 176.219 810.126 198.695 810.126 226.422C810.126 254.148 832.796 276.625 860.759 276.625Z" fill="#AB13EC"/>
<path d="M860.759 377.031C888.723 377.031 911.392 354.555 911.392 326.828C911.392 299.102 888.723 276.625 860.759 276.625C832.796 276.625 810.126 299.102 810.126 326.828C810.126 354.555 832.796 377.031 860.759 377.031Z" fill="#8713EC"/>
<path d="M860.759 477.438C888.723 477.438 911.392 454.961 911.392 427.234C911.392 399.508 888.723 377.031 860.759 377.031C832.796 377.031 810.126 399.508 810.126 427.234C810.126 454.961 832.796 477.438 860.759 477.438Z" fill="#5F13EC"/>
<path d="M860.759 577.844C888.723 577.844 911.392 555.367 911.392 527.641C911.392 499.914 888.723 477.438 860.759 477.438C832.796 477.438 810.126 499.914 810.126 527.641C810.126 555.367 832.796 577.844 860.759 577.844Z" fill="#3B13EC"/>
<path d="M860.759 678.25C888.723 678.25 911.392 655.773 911.392 628.047C911.392 600.32 888.723 577.844 860.759 577.844C832.796 577.844 810.126 600.32 810.126 628.047C810.126 655.773 832.796 678.25 860.759 678.25Z" fill="#1A13EC"/>
<path d="M860.759 778.656C888.723 778.656 911.392 756.18 911.392 728.453C911.392 700.727 888.723 678.25 860.759 678.25C832.796 678.25 810.126 700.727 810.126 728.453C810.126 756.18 832.796 778.656 860.759 778.656Z" fill="#1329EC"/>
<path d="M860.759 879.062C888.723 879.062 911.392 856.586 911.392 828.859C911.392 801.133 888.723 778.656 860.759 778.656C832.796 778.656 810.126 801.133 810.126 828.859C810.126 856.586 832.796 879.062 860.759 879.062Z" fill="#1346EC"/>
<path d="M962.025 75.8125C989.989 75.8125 1012.66 53.3358 1012.66 25.6094C1012.66 -2.11704 989.989 -24.5938 962.025 -24.5938C934.062 -24.5938 911.393 -2.11704 911.393 25.6094C911.393 53.3358 934.062 75.8125 962.025 75.8125Z" fill="#E513EC"/>
<path d="M962.025 176.219C989.989 176.219 1012.66 153.742 1012.66 126.016C1012.66 98.2892 989.989 75.8125 962.025 75.8125C934.062 75.8125 911.393 98.2892 911.393 126.016C911.393 153.742 934.062 176.219 962.025 176.219Z" fill="#C113EC"/>
<path d="M962.025 276.625C989.989 276.625 1012.66 254.148 1012.66 226.422C1012.66 198.695 989.989 176.219 962.025 176.219C934.062 176.219 911.393 198.695 911.393 226.422C911.393 254.148 934.062 276.625 962.025 276.625Z" fill="#C113EC"/>
<path d="M962.025 377.031C989.989 377.031 1012.66 354.555 1012.66 326.828C1012.66 299.102 989.989 276.625 962.025 276.625C934.062 276.625 911.393 299.102 911.393 326.828C911.393 354.555 934.062 377.031 962.025 377.031Z" fill="#9913EC"/>
<path d="M962.025 477.438C989.989 477.438 1012.66 454.961 1012.66 427.234C1012.66 399.508 989.989 377.031 962.025 377.031C934.062 377.031 911.393 399.508 911.393 427.234C911.393 454.961 934.062 477.438 962.025 477.438Z" fill="#7513EC"/>
<path d="M962.025 577.844C989.989 577.844 1012.66 555.367 1012.66 527.641C1012.66 499.914 989.989 477.438 962.025 477.438C934.062 477.438 911.393 499.914 911.393 527.641C911.393 555.367 934.062 577.844 962.025 577.844Z" fill="#5413EC"/>
<path d="M962.025 678.25C989.989 678.25 1012.66 655.773 1012.66 628.047C1012.66 600.32 989.989 577.844 962.025 577.844C934.062 577.844 911.393 600.32 911.393 628.047C911.393 655.773 934.062 678.25 962.025 678.25Z" fill="#3413EC"/>
<path d="M962.025 778.656C989.989 778.656 1012.66 756.18 1012.66 728.453C1012.66 700.727 989.989 678.25 962.025 678.25C934.062 678.25 911.393 700.727 911.393 728.453C911.393 756.18 934.062 778.656 962.025 778.656Z" fill="#1713EC"/>
<path d="M962.025 879.062C989.989 879.062 1012.66 856.586 1012.66 828.859C1012.66 801.133 989.989 778.656 962.025 778.656C934.062 778.656 911.393 801.133 911.393 828.859C911.393 856.586 934.062 879.062 962.025 879.062Z" fill="#1329EC"/>
<path d="M1063.29 75.8125C1091.25 75.8125 1113.92 53.3358 1113.92 25.6094C1113.92 -2.11704 1091.25 -24.5938 1063.29 -24.5938C1035.33 -24.5938 1012.66 -2.11704 1012.66 25.6094C1012.66 53.3358 1035.33 75.8125 1063.29 75.8125Z" fill="#EC13E5"/>
<path d="M1063.29 176.219C1091.25 176.219 1113.92 153.742 1113.92 126.016C1113.92 98.2892 1091.25 75.8125 1063.29 75.8125C1035.33 75.8125 1012.66 98.2892 1012.66 126.016C1012.66 153.742 1035.33 176.219 1063.29 176.219Z" fill="#CF13EC"/>
<path d="M1063.29 276.625C1091.25 276.625 1113.92 254.148 1113.92 226.422C1113.92 198.695 1091.25 176.219 1063.29 176.219C1035.33 176.219 1012.66 198.695 1012.66 226.422C1012.66 254.148 1035.33 276.625 1063.29 276.625Z" fill="#CF13EC"/>
<path d="M1063.29 377.031C1091.25 377.031 1113.92 354.555 1113.92 326.828C1113.92 299.102 1091.25 276.625 1063.29 276.625C1035.33 276.625 1012.66 299.102 1012.66 326.828C1012.66 354.555 1035.33 377.031 1063.29 377.031Z" fill="#AB13EC"/>
<path d="M1063.29 477.438C1091.25 477.438 1113.92 454.961 1113.92 427.234C1113.92 399.508 1091.25 377.031 1063.29 377.031C1035.33 377.031 1012.66 399.508 1012.66 427.234C1012.66 454.961 1035.33 477.438 1063.29 477.438Z" fill="#8713EC"/>
<path d="M1063.29 577.844C1091.25 577.844 1113.92 555.367 1113.92 527.641C1113.92 499.914 1091.25 477.438 1063.29 477.438C1035.33 477.438 1012.66 499.914 1012.66 527.641C1012.66 555.367 1035.33 577.844 1063.29 577.844Z" fill="#6613EC"/>
<path d="M1063.29 678.25C1091.25 678.25 1113.92 655.773 1113.92 628.047C1113.92 600.32 1091.25 577.844 1063.29 577.844C1035.33 577.844 1012.66 600.32 1012.66 628.047C1012.66 655.773 1035.33 678.25 1063.29 678.25Z" fill="#4913EC"/>
<path d="M1063.29 778.656C1091.25 778.656 1113.92 756.18 1113.92 728.453C1113.92 700.727 1091.25 678.25 1063.29 678.25C1035.33 678.25 1012.66 700.727 1012.66 728.453C1012.66 756.18 1035.33 778.656 1063.29 778.656Z" fill="#2C13EC"/>
<path d="M1063.29 879.062C1091.25 879.062 1113.92 856.586 1113.92 828.859C1113.92 801.133 1091.25 778.656 1063.29 778.656C1035.33 778.656 1012.66 801.133 1012.66 828.859C1012.66 856.586 1035.33 879.062 1063.29 879.062Z" fill="#1313EC"/>
<path d="M1164.56 75.8125C1192.52 75.8125 1215.19 53.3358 1215.19 25.6094C1215.19 -2.11704 1192.52 -24.5938 1164.56 -24.5938C1136.59 -24.5938 1113.92 -2.11704 1113.92 25.6094C1113.92 53.3358 1136.59 75.8125 1164.56 75.8125Z" fill="#EC13DD"/>
<path d="M1164.56 176.219C1192.52 176.219 1215.19 153.742 1215.19 126.016C1215.19 98.2892 1192.52 75.8125 1164.56 75.8125C1136.59 75.8125 1113.92 98.2892 1113.92 126.016C1113.92 153.742 1136.59 176.219 1164.56 176.219Z" fill="#DA13EC"/>
<path d="M1164.56 276.625C1192.52 276.625 1215.19 254.148 1215.19 226.422C1215.19 198.695 1192.52 176.219 1164.56 176.219C1136.59 176.219 1113.92 198.695 1113.92 226.422C1113.92 254.148 1136.59 276.625 1164.56 276.625Z" fill="#DA13EC"/>
<path d="M1164.56 377.031C1192.52 377.031 1215.19 354.555 1215.19 326.828C1215.19 299.102 1192.52 276.625 1164.56 276.625C1136.59 276.625 1113.92 299.102 1113.92 326.828C1113.92 354.555 1136.59 377.031 1164.56 377.031Z" fill="#B913EC"/>
<path d="M1164.56 477.438C1192.52 477.438 1215.19 454.961 1215.19 427.234C1215.19 399.508 1192.52 377.031 1164.56 377.031C1136.59 377.031 1113.92 399.508 1113.92 427.234C1113.92 454.961 1136.59 477.438 1164.56 477.438Z" fill="#9513EC"/>
<path d="M1164.56 577.844C1192.52 577.844 1215.19 555.367 1215.19 527.641C1215.19 499.914 1192.52 477.438 1164.56 477.438C1136.59 477.438 1113.92 499.914 1113.92 527.641C1113.92 555.367 1136.59 577.844 1164.56 577.844Z" fill="#7813EC"/>
<path d="M1164.56 678.25C1192.52 678.25 1215.19 655.773 1215.19 628.047C1215.19 600.32 1192.52 577.844 1164.56 577.844C1136.59 577.844 1113.92 600.32 1113.92 628.047C1113.92 655.773 1136.59 678.25 1164.56 678.25Z" fill="#5B13EC"/>
<path d="M1164.56 778.656C1192.52 778.656 1215.19 756.18 1215.19 728.453C1215.19 700.727 1192.52 678.25 1164.56 678.25C1136.59 678.25 1113.92 700.727 1113.92 728.453C1113.92 756.18 1136.59 778.656 1164.56 778.656Z" fill="#3E13EC"/>
<path d="M1164.56 879.062C1192.52 879.062 1215.19 856.586 1215.19 828.859C1215.19 801.133 1192.52 778.656 1164.56 778.656C1136.59 778.656 1113.92 801.133 1113.92 828.859C1113.92 856.586 1136.59 879.062 1164.56 879.062Z" fill="#2513EC"/>
<path d="M1265.82 75.8125C1293.79 75.8125 1316.46 53.3358 1316.46 25.6094C1316.46 -2.11704 1293.79 -24.5938 1265.82 -24.5938C1237.86 -24.5938 1215.19 -2.11704 1215.19 25.6094C1215.19 53.3358 1237.86 75.8125 1265.82 75.8125Z" fill="#EC13DD"/>
<path d="M1265.82 176.219C1293.79 176.219 1316.46 153.742 1316.46 126.016C1316.46 98.2892 1293.79 75.8125 1265.82 75.8125C1237.86 75.8125 1215.19 98.2892 1215.19 126.016C1215.19 153.742 1237.86 176.219 1265.82 176.219Z" fill="#DA13EC"/>
<path d="M1265.82 276.625C1293.79 276.625 1316.46 254.148 1316.46 226.422C1316.46 198.695 1293.79 176.219 1265.82 176.219C1237.86 176.219 1215.19 198.695 1215.19 226.422C1215.19 254.148 1237.86 276.625 1265.82 276.625Z" fill="#DA13EC"/>
<path d="M1265.82 377.031C1293.79 377.031 1316.46 354.555 1316.46 326.828C1316.46 299.102 1293.79 276.625 1265.82 276.625C1237.86 276.625 1215.19 299.102 1215.19 326.828C1215.19 354.555 1237.86 377.031 1265.82 377.031Z" fill="#B913EC"/>
<path d="M1265.82 477.438C1293.79 477.438 1316.46 454.961 1316.46 427.234C1316.46 399.508 1293.79 377.031 1265.82 377.031C1237.86 377.031 1215.19 399.508 1215.19 427.234C1215.19 454.961 1237.86 477.438 1265.82 477.438Z" fill="#9513EC"/>
<path d="M1265.82 577.844C1293.79 577.844 1316.46 555.367 1316.46 527.641C1316.46 499.914 1293.79 477.438 1265.82 477.438C1237.86 477.438 1215.19 499.914 1215.19 527.641C1215.19 555.367 1237.86 577.844 1265.82 577.844Z" fill="#7813EC"/>
<path d="M1265.82 678.25C1293.79 678.25 1316.46 655.773 1316.46 628.047C1316.46 600.32 1293.79 577.844 1265.82 577.844C1237.86 577.844 1215.19 600.32 1215.19 628.047C1215.19 655.773 1237.86 678.25 1265.82 678.25Z" fill="#5B13EC"/>
<path d="M1265.82 778.656C1293.79 778.656 1316.46 756.18 1316.46 728.453C1316.46 700.727 1293.79 678.25 1265.82 678.25C1237.86 678.25 1215.19 700.727 1215.19 728.453C1215.19 756.18 1237.86 778.656 1265.82 778.656Z" fill="#3E13EC"/>
<path d="M1265.82 879.062C1293.79 879.062 1316.46 856.586 1316.46 828.859C1316.46 801.133 1293.79 778.656 1265.82 778.656C1237.86 778.656 1215.19 801.133 1215.19 828.859C1215.19 856.586 1237.86 879.062 1265.82 879.062Z" fill="#2513EC"/>
<path d="M1367.09 75.8125C1395.05 75.8125 1417.72 53.3358 1417.72 25.6094C1417.72 -2.11704 1395.05 -24.5938 1367.09 -24.5938C1339.12 -24.5938 1316.46 -2.11704 1316.46 25.6094C1316.46 53.3358 1339.12 75.8125 1367.09 75.8125Z" fill="#EC13D6"/>
<path d="M1367.09 176.219C1395.05 176.219 1417.72 153.742 1417.72 126.016C1417.72 98.2892 1395.05 75.8125 1367.09 75.8125C1339.12 75.8125 1316.46 98.2892 1316.46 126.016C1316.46 153.742 1339.12 176.219 1367.09 176.219Z" fill="#E113EC"/>
<path d="M1367.09 276.625C1395.05 276.625 1417.72 254.148 1417.72 226.422C1417.72 198.695 1395.05 176.219 1367.09 176.219C1339.12 176.219 1316.46 198.695 1316.46 226.422C1316.46 254.148 1339.12 276.625 1367.09 276.625Z" fill="#E113EC"/>
<path d="M1367.09 377.031C1395.05 377.031 1417.72 354.555 1417.72 326.828C1417.72 299.102 1395.05 276.625 1367.09 276.625C1339.12 276.625 1316.46 299.102 1316.46 326.828C1316.46 354.555 1339.12 377.031 1367.09 377.031Z" fill="#C113EC"/>
<path d="M1367.09 477.438C1395.05 477.438 1417.72 454.961 1417.72 427.234C1417.72 399.508 1395.05 377.031 1367.09 377.031C1339.12 377.031 1316.46 399.508 1316.46 427.234C1316.46 454.961 1339.12 477.438 1367.09 477.438Z" fill="#A413EC"/>
<path d="M1367.09 577.844C1395.05 577.844 1417.72 555.367 1417.72 527.641C1417.72 499.914 1395.05 477.438 1367.09 477.438C1339.12 477.438 1316.46 499.914 1316.46 527.641C1316.46 555.367 1339.12 577.844 1367.09 577.844Z" fill="#8313EC"/>
<path d="M1367.09 678.25C1395.05 678.25 1417.72 655.773 1417.72 628.047C1417.72 600.32 1395.05 577.844 1367.09 577.844C1339.12 577.844 1316.46 600.32 1316.46 628.047C1316.46 655.773 1339.12 678.25 1367.09 678.25Z" fill="#6A13EC"/>
<path d="M1367.09 778.656C1395.05 778.656 1417.72 756.18 1417.72 728.453C1417.72 700.727 1395.05 678.25 1367.09 678.25C1339.12 678.25 1316.46 700.727 1316.46 728.453C1316.46 756.18 1339.12 778.656 1367.09 778.656Z" fill="#5113EC"/>
<path d="M1367.09 879.062C1395.05 879.062 1417.72 856.586 1417.72 828.859C1417.72 801.133 1395.05 778.656 1367.09 778.656C1339.12 778.656 1316.46 801.133 1316.46 828.859C1316.46 856.586 1339.12 879.062 1367.09 879.062Z" fill="#3713EC"/>
<path d="M1468.35 75.8125C1496.32 75.8125 1518.99 53.3358 1518.99 25.6094C1518.99 -2.11704 1496.32 -24.5938 1468.35 -24.5938C1440.39 -24.5938 1417.72 -2.11704 1417.72 25.6094C1417.72 53.3358 1440.39 75.8125 1468.35 75.8125Z" fill="#EC13CF"/>
<path d="M1468.35 176.219C1496.32 176.219 1518.99 153.742 1518.99 126.016C1518.99 98.2892 1496.32 75.8125 1468.35 75.8125C1440.39 75.8125 1417.72 98.2892 1417.72 126.016C1417.72 153.742 1440.39 176.219 1468.35 176.219Z" fill="#E813EC"/>
<path d="M1468.35 276.625C1496.32 276.625 1518.99 254.148 1518.99 226.422C1518.99 198.695 1496.32 176.219 1468.35 176.219C1440.39 176.219 1417.72 198.695 1417.72 226.422C1417.72 254.148 1440.39 276.625 1468.35 276.625Z" fill="#E813EC"/>
<path d="M1468.35 377.031C1496.32 377.031 1518.99 354.555 1518.99 326.828C1518.99 299.102 1496.32 276.625 1468.35 276.625C1440.39 276.625 1417.72 299.102 1417.72 326.828C1417.72 354.555 1440.39 377.031 1468.35 377.031Z" fill="#CB13EC"/>
<path d="M1468.35 477.438C1496.32 477.438 1518.99 454.961 1518.99 427.234C1518.99 399.508 1496.32 377.031 1468.35 377.031C1440.39 377.031 1417.72 399.508 1417.72 427.234C1417.72 454.961 1440.39 477.438 1468.35 477.438Z" fill="#AB13EC"/>
<path d="M1468.35 577.844C1496.32 577.844 1518.99 555.367 1518.99 527.641C1518.99 499.914 1496.32 477.438 1468.35 477.438C1440.39 477.438 1417.72 499.914 1417.72 527.641C1417.72 555.367 1440.39 577.844 1468.35 577.844Z" fill="#8E13EC"/>
<path d="M1468.35 678.25C1496.32 678.25 1518.99 655.773 1518.99 628.047C1518.99 600.32 1496.32 577.844 1468.35 577.844C1440.39 577.844 1417.72 600.32 1417.72 628.047C1417.72 655.773 1440.39 678.25 1468.35 678.25Z" fill="#7513EC"/>
<path d="M1468.35 778.656C1496.32 778.656 1518.99 756.18 1518.99 728.453C1518.99 700.727 1496.32 678.25 1468.35 678.25C1440.39 678.25 1417.72 700.727 1417.72 728.453C1417.72 756.18 1440.39 778.656 1468.35 778.656Z" fill="#5F13EC"/>
<path d="M1468.35 879.062C1496.32 879.062 1518.99 856.586 1518.99 828.859C1518.99 801.133 1496.32 778.656 1468.35 778.656C1440.39 778.656 1417.72 801.133 1417.72 828.859C1417.72 856.586 1440.39 879.062 1468.35 879.062Z" fill="#4613EC"/>
<path d="M1569.62 75.8125C1597.58 75.8125 1620.25 53.3358 1620.25 25.6094C1620.25 -2.11704 1597.58 -24.5938 1569.62 -24.5938C1541.66 -24.5938 1518.99 -2.11704 1518.99 25.6094C1518.99 53.3358 1541.66 75.8125 1569.62 75.8125Z" fill="#EC13CB"/>
<path d="M1569.62 176.219C1597.58 176.219 1620.25 153.742 1620.25 126.016C1620.25 98.2892 1597.58 75.8125 1569.62 75.8125C1541.66 75.8125 1518.99 98.2892 1518.99 126.016C1518.99 153.742 1541.66 176.219 1569.62 176.219Z" fill="#EC13E8"/>
<path d="M1569.62 276.625C1597.58 276.625 1620.25 254.148 1620.25 226.422C1620.25 198.695 1597.58 176.219 1569.62 176.219C1541.66 176.219 1518.99 198.695 1518.99 226.422C1518.99 254.148 1541.66 276.625 1569.62 276.625Z" fill="#EC13E8"/>
<path d="M1569.62 377.031C1597.58 377.031 1620.25 354.555 1620.25 326.828C1620.25 299.102 1597.58 276.625 1569.62 276.625C1541.66 276.625 1518.99 299.102 1518.99 326.828C1518.99 354.555 1541.66 377.031 1569.62 377.031Z" fill="#D313EC"/>
<path d="M1569.62 477.438C1597.58 477.438 1620.25 454.961 1620.25 427.234C1620.25 399.508 1597.58 377.031 1569.62 377.031C1541.66 377.031 1518.99 399.508 1518.99 427.234C1518.99 454.961 1541.66 477.438 1569.62 477.438Z" fill="#B613EC"/>
<path d="M1569.62 577.844C1597.58 577.844 1620.25 555.367 1620.25 527.641C1620.25 499.914 1597.58 477.438 1569.62 477.438C1541.66 477.438 1518.99 499.914 1518.99 527.641C1518.99 555.367 1541.66 577.844 1569.62 577.844Z" fill="#9C13EC"/>
<path d="M1569.62 678.25C1597.58 678.25 1620.25 655.773 1620.25 628.047C1620.25 600.32 1597.58 577.844 1569.62 577.844C1541.66 577.844 1518.99 600.32 1518.99 628.047C1518.99 655.773 1541.66 678.25 1569.62 678.25Z" fill="#8313EC"/>
<path d="M1569.62 778.656C1597.58 778.656 1620.25 756.18 1620.25 728.453C1620.25 700.727 1597.58 678.25 1569.62 678.25C1541.66 678.25 1518.99 700.727 1518.99 728.453C1518.99 756.18 1541.66 778.656 1569.62 778.656Z" fill="#6A13EC"/>
<path d="M1569.62 879.062C1597.58 879.062 1620.25 856.586 1620.25 828.859C1620.25 801.133 1597.58 778.656 1569.62 778.656C1541.66 778.656 1518.99 801.133 1518.99 828.859C1518.99 856.586 1541.66 879.062 1569.62 879.062Z" fill="#5813EC"/>
<path d="M1670.89 75.8125C1698.85 75.8125 1721.52 53.3358 1721.52 25.6094C1721.52 -2.11704 1698.85 -24.5938 1670.89 -24.5938C1642.92 -24.5938 1620.25 -2.11704 1620.25 25.6094C1620.25 53.3358 1642.92 75.8125 1670.89 75.8125Z" fill="#EC13C8"/>
<path d="M1670.89 176.219C1698.85 176.219 1721.52 153.742 1721.52 126.016C1721.52 98.2892 1698.85 75.8125 1670.89 75.8125C1642.92 75.8125 1620.25 98.2892 1620.25 126.016C1620.25 153.742 1642.92 176.219 1670.89 176.219Z" fill="#EC13E1"/>
<path d="M1670.89 276.625C1698.85 276.625 1721.52 254.148 1721.52 226.422C1721.52 198.695 1698.85 176.219 1670.89 176.219C1642.92 176.219 1620.25 198.695 1620.25 226.422C1620.25 254.148 1642.92 276.625 1670.89 276.625Z" fill="#EC13E1"/>
<path d="M1670.89 377.031C1698.85 377.031 1721.52 354.555 1721.52 326.828C1721.52 299.102 1698.85 276.625 1670.89 276.625C1642.92 276.625 1620.25 299.102 1620.25 326.828C1620.25 354.555 1642.92 377.031 1670.89 377.031Z" fill="#DA13EC"/>
<path d="M1670.89 477.438C1698.85 477.438 1721.52 454.961 1721.52 427.234C1721.52 399.508 1698.85 377.031 1670.89 377.031C1642.92 377.031 1620.25 399.508 1620.25 427.234C1620.25 454.961 1642.92 477.438 1670.89 477.438Z" fill="#C113EC"/>
<path d="M1670.89 577.844C1698.85 577.844 1721.52 555.367 1721.52 527.641C1721.52 499.914 1698.85 477.438 1670.89 477.438C1642.92 477.438 1620.25 499.914 1620.25 527.641C1620.25 555.367 1642.92 577.844 1670.89 577.844Z" fill="#A713EC"/>
<path d="M1670.89 678.25C1698.85 678.25 1721.52 655.773 1721.52 628.047C1721.52 600.32 1698.85 577.844 1670.89 577.844C1642.92 577.844 1620.25 600.32 1620.25 628.047C1620.25 655.773 1642.92 678.25 1670.89 678.25Z" fill="#8E13EC"/>
<path d="M1670.89 778.656C1698.85 778.656 1721.52 756.18 1721.52 728.453C1721.52 700.727 1698.85 678.25 1670.89 678.25C1642.92 678.25 1620.25 700.727 1620.25 728.453C1620.25 756.18 1642.92 778.656 1670.89 778.656Z" fill="#7813EC"/>
<path d="M1670.89 879.062C1698.85 879.062 1721.52 856.586 1721.52 828.859C1721.52 801.133 1698.85 778.656 1670.89 778.656C1642.92 778.656 1620.25 801.133 1620.25 828.859C1620.25 856.586 1642.92 879.062 1670.89 879.062Z" fill="#6613EC"/>
<path d="M1772.15 75.8125C1800.12 75.8125 1822.78 53.3358 1822.78 25.6094C1822.78 -2.11704 1800.12 -24.5938 1772.15 -24.5938C1744.19 -24.5938 1721.52 -2.11704 1721.52 25.6094C1721.52 53.3358 1744.19 75.8125 1772.15 75.8125Z" fill="#EC13C1"/>
<path d="M1772.15 176.219C1800.12 176.219 1822.78 153.742 1822.78 126.016C1822.78 98.2892 1800.12 75.8125 1772.15 75.8125C1744.19 75.8125 1721.52 98.2892 1721.52 126.016C1721.52 153.742 1744.19 176.219 1772.15 176.219Z" fill="#EC13DA"/>
<path d="M1772.15 276.625C1800.12 276.625 1822.78 254.148 1822.78 226.422C1822.78 198.695 1800.12 176.219 1772.15 176.219C1744.19 176.219 1721.52 198.695 1721.52 226.422C1721.52 254.148 1744.19 276.625 1772.15 276.625Z" fill="#EC13DA"/>
<path d="M1772.15 377.031C1800.12 377.031 1822.78 354.555 1822.78 326.828C1822.78 299.102 1800.12 276.625 1772.15 276.625C1744.19 276.625 1721.52 299.102 1721.52 326.828C1721.52 354.555 1744.19 377.031 1772.15 377.031Z" fill="#E513EC"/>
<path d="M1772.15 477.438C1800.12 477.438 1822.78 454.961 1822.78 427.234C1822.78 399.508 1800.12 377.031 1772.15 377.031C1744.19 377.031 1721.52 399.508 1721.52 427.234C1721.52 454.961 1744.19 477.438 1772.15 477.438Z" fill="#CB13EC"/>
<path d="M1772.15 577.844C1800.12 577.844 1822.78 555.367 1822.78 527.641C1822.78 499.914 1800.12 477.438 1772.15 477.438C1744.19 477.438 1721.52 499.914 1721.52 527.641C1721.52 555.367 1744.19 577.844 1772.15 577.844Z" fill="#B213EC"/>
<path d="M1772.15 678.25C1800.12 678.25 1822.78 655.773 1822.78 628.047C1822.78 600.32 1800.12 577.844 1772.15 577.844C1744.19 577.844 1721.52 600.32 1721.52 628.047C1721.52 655.773 1744.19 678.25 1772.15 678.25Z" fill="#9C13EC"/>
<path d="M1772.15 778.656C1800.12 778.656 1822.78 756.18 1822.78 728.453C1822.78 700.727 1800.12 678.25 1772.15 678.25C1744.19 678.25 1721.52 700.727 1721.52 728.453C1721.52 756.18 1744.19 778.656 1772.15 778.656Z" fill="#8A13EC"/>
<path d="M1772.15 879.062C1800.12 879.062 1822.78 856.586 1822.78 828.859C1822.78 801.133 1800.12 778.656 1772.15 778.656C1744.19 778.656 1721.52 801.133 1721.52 828.859C1721.52 856.586 1744.19 879.062 1772.15 879.062Z" fill="#7813EC"/>
<path d="M1873.42 75.8125C1901.38 75.8125 1924.05 53.3358 1924.05 25.6094C1924.05 -2.11704 1901.38 -24.5938 1873.42 -24.5938C1845.45 -24.5938 1822.78 -2.11704 1822.78 25.6094C1822.78 53.3358 1845.45 75.8125 1873.42 75.8125Z" fill="#EC13C1"/>
<path d="M1873.42 176.219C1901.38 176.219 1924.05 153.742 1924.05 126.016C1924.05 98.2892 1901.38 75.8125 1873.42 75.8125C1845.45 75.8125 1822.78 98.2892 1822.78 126.016C1822.78 153.742 1845.45 176.219 1873.42 176.219Z" fill="#EC13DA"/>
<path d="M1873.42 276.625C1901.38 276.625 1924.05 254.148 1924.05 226.422C1924.05 198.695 1901.38 176.219 1873.42 176.219C1845.45 176.219 1822.78 198.695 1822.78 226.422C1822.78 254.148 1845.45 276.625 1873.42 276.625Z" fill="#EC13DA"/>
<path d="M1873.42 377.031C1901.38 377.031 1924.05 354.555 1924.05 326.828C1924.05 299.102 1901.38 276.625 1873.42 276.625C1845.45 276.625 1822.78 299.102 1822.78 326.828C1822.78 354.555 1845.45 377.031 1873.42 377.031Z" fill="#E513EC"/>
<path d="M1873.42 477.438C1901.38 477.438 1924.05 454.961 1924.05 427.234C1924.05 399.508 1901.38 377.031 1873.42 377.031C1845.45 377.031 1822.78 399.508 1822.78 427.234C1822.78 454.961 1845.45 477.438 1873.42 477.438Z" fill="#CB13EC"/>
<path d="M1873.42 577.844C1901.38 577.844 1924.05 555.367 1924.05 527.641C1924.05 499.914 1901.38 477.438 1873.42 477.438C1845.45 477.438 1822.78 499.914 1822.78 527.641C1822.78 555.367 1845.45 577.844 1873.42 577.844Z" fill="#B213EC"/>
<path d="M1873.42 678.25C1901.38 678.25 1924.05 655.773 1924.05 628.047C1924.05 600.32 1901.38 577.844 1873.42 577.844C1845.45 577.844 1822.78 600.32 1822.78 628.047C1822.78 655.773 1845.45 678.25 1873.42 678.25Z" fill="#9C13EC"/>
<path d="M1873.42 778.656C1901.38 778.656 1924.05 756.18 1924.05 728.453C1924.05 700.727 1901.38 678.25 1873.42 678.25C1845.45 678.25 1822.78 700.727 1822.78 728.453C1822.78 756.18 1845.45 778.656 1873.42 778.656Z" fill="#8A13EC"/>
<path d="M1873.42 879.062C1901.38 879.062 1924.05 856.586 1924.05 828.859C1924.05 801.133 1901.38 778.656 1873.42 778.656C1845.45 778.656 1822.78 801.133 1822.78 828.859C1822.78 856.586 1845.45 879.062 1873.42 879.062Z" fill="#7813EC"/>
</g>
<g style="mix-blend-mode:hard-light">
<rect y="-125" width="1920" height="1071" fill="black" fill-opacity="0.4"/>
</g>
</g>
<defs>
<clipPath id="clip0_22_2">
<path d="M0 80C0 35.8172 35.8172 0 80 0H1840C1884.18 0 1920 35.8172 1920 80V732C1920 776.183 1884.18 812 1840 812H80C35.8173 812 0 776.183 0 732V80Z" fill="white"/>
</clipPath>
<clipPath id="clip1_22_2">
<rect width="1920" height="1071" fill="white" transform="translate(0 -125)"/>
</clipPath>
</defs>
</svg>
