<svg width="32" height="32" viewBox="0 0 32 32" fill="none"
    xmlns="http://www.w3.org/2000/svg">
    <path d="M15.0236 11.2575L11.2616 15.0192C10.7213 15.5594 10.7213 16.4354 11.2616 16.9757L15.0236 20.7374C15.5639 21.2776 16.4399 21.2776 16.9802 20.7374L20.7422 16.9757C21.2825 16.4354 21.2825 15.5594 20.7422 15.0192L16.9802 11.2575C16.4399 10.7172 15.5639 10.7172 15.0236 11.2575Z" fill="currentColor"/>
    <path d="M16.0011 30.6666C15.0353 30.67 14.0784 30.4816 13.1861 30.1123C12.2937 29.7431 11.4835 29.2002 10.8026 28.5154L10.0028 27.7157L13.4138 24.3049L14.2136 25.1046C14.6864 25.5772 15.3275 25.8427 15.9961 25.8427C16.6646 25.8427 17.3057 25.5772 17.7786 25.1046L25.1024 17.7813C25.5739 17.3084 25.8387 16.6678 25.8387 16C25.8387 15.3321 25.5739 14.6916 25.1024 14.2186L21.4455 10.566L24.8565 7.1552L28.5194 10.8179C29.8944 12.196 30.6667 14.0632 30.6667 16.01C30.6667 17.9567 29.8944 19.8239 28.5194 21.2021L21.1936 28.5254C20.5127 29.2079 19.7031 29.7486 18.8118 30.1161C17.9205 30.4837 16.9652 30.6708 16.0011 30.6666Z" fill="currentColor"/>
    <path d="M7.13965 24.8547L3.48472 21.1921C2.80266 20.5103 2.26161 19.7009 1.89247 18.81C1.52333 17.9192 1.33333 16.9643 1.33333 16C1.33333 15.0357 1.52333 14.0808 1.89247 13.1899C2.26161 12.299 2.80266 11.4896 3.48472 10.8079L10.8086 3.48456C11.4904 2.80256 12.2999 2.26155 13.1908 1.89243C14.0817 1.52332 15.0367 1.33334 16.0011 1.33334C16.9654 1.33334 17.9204 1.52332 18.8113 1.89243C19.7023 2.26155 20.5117 2.80256 21.1935 3.48456L21.9933 4.28427L18.5823 7.69502L17.7825 6.89531C17.3097 6.42272 16.6686 6.15723 16.0001 6.15723C15.3315 6.15723 14.6904 6.42272 14.2176 6.89531L6.89372 14.2186C6.65976 14.4526 6.47417 14.7303 6.34754 15.0359C6.22092 15.3416 6.15575 15.6691 6.15575 16C6.15575 16.3308 6.22092 16.6584 6.34754 16.964C6.47417 17.2697 6.65976 17.5474 6.89372 17.7813L10.5566 21.444L7.13965 24.8547Z" fill="currentColor"/>
</svg>
